<svg xmlns="http://www.w3.org/2000/svg" xmlns:xlink="http://www.w3.org/1999/xlink" width="1600" zoomAndPan="magnify" viewBox="0 0 1200 359.999987" height="480" preserveAspectRatio="xMidYMid meet" version="1.2"><defs><clipPath id="ba601f0d73"><path d="M 36 77.054688 L 259 77.054688 L 259 287.839844 L 36 287.839844 Z M 36 77.054688 "/></clipPath><clipPath id="fd08ba433e"><path d="M 147.203125 77.054688 C 85.789062 77.054688 36 124.242188 36 182.449219 C 36 240.65625 85.789062 287.839844 147.203125 287.839844 C 208.617188 287.839844 258.40625 240.65625 258.40625 182.449219 C 258.40625 124.242188 208.617188 77.054688 147.203125 77.054688 Z M 147.203125 77.054688 "/></clipPath><clipPath id="280fb7f29d"><path d="M 55.683594 175 L 252.933594 175 L 252.933594 259.996094 L 55.683594 259.996094 Z M 55.683594 175 "/></clipPath><clipPath id="29294231a5"><path d="M 182 102.496094 L 206 102.496094 L 206 212 L 182 212 Z M 182 102.496094 "/></clipPath></defs><g id="55830872fc"><rect x="0" width="1200" y="0" height="359.999987" style="fill:#ffffff;fill-opacity:1;stroke:none;"/><rect x="0" width="1200" y="0" height="359.999987" style="fill:#082750;fill-opacity:1;stroke:none;"/><g style="fill:#ffffff;fill-opacity:1;"><g transform="translate(300.833998, 264.562965)"><path style="stroke:none" d="M 65.15625 1.859375 C 83.976562 2.066406 98.453125 -1.753906 108.578125 -9.609375 C 118.710938 -17.472656 123.78125 -28.851562 123.78125 -43.75 C 123.78125 -52.019531 121.867188 -59 118.046875 -64.6875 C 114.222656 -70.375 109.3125 -75.179688 103.3125 -79.109375 C 97.3125 -83.035156 90.898438 -86.394531 84.078125 -89.1875 C 77.253906 -91.988281 70.84375 -94.421875 64.84375 -96.484375 C 58.84375 -98.554688 53.925781 -100.570312 50.09375 -102.53125 C 46.269531 -104.5 44.359375 -106.722656 44.359375 -109.203125 C 44.359375 -116.234375 50.875 -119.75 63.90625 -119.75 C 69.90625 -119.75 74.867188 -118.039062 78.796875 -114.625 C 82.734375 -111.21875 85.320312 -106.3125 86.5625 -99.90625 L 120.6875 -110.140625 C 117.375 -125.441406 110.859375 -137.125 101.140625 -145.1875 C 91.421875 -153.257812 79.007812 -157.296875 63.90625 -157.296875 C 45.082031 -157.296875 30.65625 -153.363281 20.625 -145.5 C 10.59375 -137.644531 5.578125 -126.375 5.578125 -111.6875 C 5.578125 -103.625 7.488281 -96.75 11.3125 -91.0625 C 15.144531 -85.375 20.0625 -80.613281 26.0625 -76.78125 C 32.0625 -72.957031 38.421875 -69.753906 45.140625 -67.171875 C 51.859375 -64.585938 58.21875 -62.257812 64.21875 -60.1875 C 70.21875 -58.113281 75.128906 -55.988281 78.953125 -53.8125 C 82.785156 -51.644531 84.703125 -49.117188 84.703125 -46.234375 C 84.703125 -39.398438 78.1875 -35.984375 65.15625 -35.984375 C 59.363281 -35.984375 54.550781 -37.691406 50.71875 -41.109375 C 46.894531 -44.523438 44.15625 -49.226562 42.5 -55.21875 L 8.6875 -44.984375 C 12 -29.890625 18.515625 -18.253906 28.234375 -10.078125 C 37.953125 -1.910156 50.257812 2.066406 65.15625 1.859375 Z M 65.15625 1.859375 "/></g></g><g style="fill:#ffffff;fill-opacity:1;"><g transform="translate(430.818252, 264.562965)"><path style="stroke:none" d="M 29.46875 -132.171875 C 23.0625 -132.171875 17.992188 -133.875 14.265625 -137.28125 C 10.546875 -140.695312 8.6875 -145.503906 8.6875 -151.703125 C 8.6875 -157.703125 10.546875 -162.40625 14.265625 -165.8125 C 17.992188 -169.226562 23.0625 -170.9375 29.46875 -170.9375 C 36.09375 -170.9375 41.210938 -169.226562 44.828125 -165.8125 C 48.453125 -162.40625 50.265625 -157.703125 50.265625 -151.703125 C 50.265625 -138.679688 43.332031 -132.171875 29.46875 -132.171875 Z M 50.265625 -124.09375 L 50.265625 0 L 8.6875 0 L 8.6875 -124.09375 Z M 50.265625 -124.09375 "/></g></g><g style="fill:#ffffff;fill-opacity:1;"><g transform="translate(489.760994, 264.562965)"><path style="stroke:none" d="M 49.953125 -117.578125 L 49.953125 -95.859375 L 105.171875 -95.859375 L 105.171875 -59.25 L 49.953125 -59.25 L 49.953125 0 L 8.6875 0 L 8.6875 -155.125 L 105.171875 -155.125 L 105.171875 -117.578125 Z M 49.953125 -117.578125 "/></g></g><g style="fill:#ffffff;fill-opacity:1;"><g transform="translate(603.61356, 264.562965)"><path style="stroke:none" d="M 105.171875 -41.265625 L 105.171875 0 L 8.6875 0 L 8.6875 -155.125 L 49.953125 -155.125 L 49.953125 -41.265625 Z M 105.171875 -41.265625 "/></g></g><g style="fill:#ffffff;fill-opacity:1;"><g transform="translate(716.225193, 264.562965)"><path style="stroke:none" d="M 66.390625 2.171875 C 47.566406 2.171875 32.984375 -4.753906 22.640625 -18.609375 C 12.304688 -32.472656 7.140625 -52.125 7.140625 -77.5625 C 7.140625 -103 12.304688 -122.644531 22.640625 -136.5 C 32.984375 -150.363281 47.566406 -157.296875 66.390625 -157.296875 C 85.421875 -157.296875 100.101562 -150.363281 110.4375 -136.5 C 120.78125 -122.644531 125.953125 -103 125.953125 -77.5625 C 125.953125 -52.125 120.78125 -32.472656 110.4375 -18.609375 C 100.101562 -4.753906 85.421875 2.171875 66.390625 2.171875 Z M 66.703125 -39.09375 C 72.703125 -39.09375 77.300781 -42.398438 80.5 -49.015625 C 83.707031 -55.640625 85.414062 -65.15625 85.625 -77.5625 C 85.414062 -89.96875 83.707031 -99.476562 80.5 -106.09375 C 77.300781 -112.71875 72.703125 -116.03125 66.703125 -116.03125 C 60.492188 -116.03125 55.734375 -112.71875 52.421875 -106.09375 C 49.117188 -99.476562 47.46875 -89.96875 47.46875 -77.5625 C 47.46875 -65.15625 49.117188 -55.640625 52.421875 -49.015625 C 55.734375 -42.398438 60.492188 -39.09375 66.703125 -39.09375 Z M 66.703125 -39.09375 "/></g></g><g style="fill:#ffffff;fill-opacity:1;"><g transform="translate(849.311682, 264.562965)"><path style="stroke:none" d="M 177.15625 -155.125 L 139.921875 0 L 105.484375 0 L 89.96875 -74.453125 L 74.15625 0 L 40.015625 0 L 2.796875 -155.125 L 40.640625 -155.125 L 57.703125 -63.59375 L 74.765625 -155.125 L 104.859375 -155.125 L 122.234375 -63.59375 L 139.296875 -155.125 Z M 177.15625 -155.125 "/></g></g><g clip-rule="nonzero" clip-path="url(#ba601f0d73)"><g clip-rule="nonzero" clip-path="url(#fd08ba433e)"><path style=" stroke:none;fill-rule:nonzero;fill:#ffffff;fill-opacity:1;" d="M 36 77.054688 L 258.3125 77.054688 L 258.3125 287.839844 L 36 287.839844 Z M 36 77.054688 "/></g></g><g clip-rule="nonzero" clip-path="url(#280fb7f29d)"><path style=" stroke:none;fill-rule:nonzero;fill:#082750;fill-opacity:1;" d="M 250.933594 175.363281 L 227.308594 175.792969 C 226.199219 175.8125 225.5625 177.0625 226.199219 177.96875 L 229.855469 183.195312 C 229.902344 183.265625 229.886719 183.363281 229.820312 183.410156 L 151.425781 239.101562 C 151.324219 239.175781 151.183594 239.101562 151.183594 238.976562 L 151.183594 196.542969 C 151.183594 195.984375 150.886719 195.464844 150.40625 195.179688 C 149.925781 194.894531 149.328125 194.882812 148.835938 195.148438 L 56.5625 245.324219 C 56.191406 245.527344 55.917969 245.867188 55.796875 246.269531 C 55.679688 246.671875 55.722656 247.109375 55.925781 247.476562 L 59.871094 254.730469 C 60.285156 255.5 61.25 255.785156 62.023438 255.367188 L 139.527344 213.222656 C 139.628906 213.167969 139.753906 213.238281 139.753906 213.359375 L 139.753906 258.230469 C 139.753906 258.6875 139.890625 259.148438 140.21875 259.46875 C 140.539062 259.777344 140.9375 259.929688 141.339844 259.929688 C 141.664062 259.929688 141.984375 259.828125 142.261719 259.636719 L 236.367188 192.777344 C 236.4375 192.726562 236.535156 192.746094 236.585938 192.816406 L 241.320312 199.589844 C 241.957031 200.496094 243.347656 200.328125 243.746094 199.292969 L 252.25 177.246094 C 252.601562 176.328125 251.914062 175.347656 250.933594 175.363281 "/></g><path style=" stroke:none;fill-rule:nonzero;fill:#76879e;fill-opacity:1;" d="M 114.917969 146.621094 L 114.917969 208.800781 C 114.917969 208.859375 114.886719 208.910156 114.839844 208.9375 L 92.453125 221.113281 C 92.347656 221.171875 92.226562 221.09375 92.226562 220.980469 L 92.226562 146.621094 C 92.226562 146.535156 92.292969 146.46875 92.378906 146.46875 L 114.765625 146.46875 C 114.851562 146.46875 114.917969 146.535156 114.917969 146.621094 "/><g clip-rule="nonzero" clip-path="url(#29294231a5)"><path style=" stroke:none;fill-rule:nonzero;fill:#082750;fill-opacity:1;" d="M 205.6875 102.699219 L 205.6875 195.410156 C 205.6875 195.457031 205.664062 195.503906 205.621094 195.535156 L 183.234375 211.4375 C 183.132812 211.511719 182.992188 211.4375 182.992188 211.3125 L 182.992188 102.699219 C 182.992188 102.613281 183.058594 102.546875 183.144531 102.546875 L 205.535156 102.546875 C 205.617188 102.546875 205.6875 102.613281 205.6875 102.699219 "/></g><path style=" stroke:none;fill-rule:nonzero;fill:#76879e;fill-opacity:1;" d="M 173.949219 159.316406 L 173.949219 217.957031 C 173.949219 218.007812 173.925781 218.054688 173.886719 218.082031 L 155.554688 231.105469 C 155.453125 231.175781 155.3125 231.105469 155.3125 230.980469 L 155.3125 196.542969 C 155.3125 194.542969 154.238281 192.65625 152.519531 191.632812 C 152.148438 191.417969 151.765625 191.238281 151.367188 191.113281 C 151.304688 191.09375 151.261719 191.035156 151.261719 190.972656 L 151.261719 159.316406 C 151.261719 159.230469 151.328125 159.160156 151.414062 159.160156 L 173.796875 159.160156 C 173.878906 159.160156 173.949219 159.230469 173.949219 159.316406 "/><path style=" stroke:none;fill-rule:nonzero;fill:#082750;fill-opacity:1;" d="M 144.433594 121.011719 L 144.433594 192.753906 C 144.433594 192.8125 144.402344 192.863281 144.355469 192.890625 L 121.972656 205.0625 C 121.871094 205.117188 121.746094 205.042969 121.746094 204.925781 L 121.746094 121.011719 C 121.746094 120.925781 121.816406 120.859375 121.898438 120.859375 L 144.28125 120.859375 C 144.367188 120.859375 144.433594 120.925781 144.433594 121.011719 "/><g style="fill:#ffffff;fill-opacity:1;"><g transform="translate(300.756619, 304.679038)"><path style="stroke:none" d="M 12.03125 -4.5625 C 12.03125 -3.550781 11.773438 -2.6875 11.265625 -1.96875 C 10.765625 -1.25 10.0625 -0.703125 9.15625 -0.328125 C 8.25 0.046875 7.179688 0.234375 5.953125 0.234375 C 5.296875 0.234375 4.675781 0.203125 4.09375 0.140625 C 3.519531 0.078125 2.988281 -0.0078125 2.5 -0.125 C 2.019531 -0.25 1.597656 -0.394531 1.234375 -0.5625 L 1.234375 -2.46875 C 1.816406 -2.226562 2.53125 -2.003906 3.375 -1.796875 C 4.21875 -1.585938 5.101562 -1.484375 6.03125 -1.484375 C 6.894531 -1.484375 7.625 -1.597656 8.21875 -1.828125 C 8.8125 -2.066406 9.257812 -2.398438 9.5625 -2.828125 C 9.875 -3.265625 10.03125 -3.789062 10.03125 -4.40625 C 10.03125 -4.988281 9.898438 -5.476562 9.640625 -5.875 C 9.390625 -6.269531 8.960938 -6.628906 8.359375 -6.953125 C 7.765625 -7.273438 6.945312 -7.617188 5.90625 -7.984375 C 5.1875 -8.242188 4.546875 -8.53125 3.984375 -8.84375 C 3.429688 -9.15625 2.96875 -9.503906 2.59375 -9.890625 C 2.21875 -10.285156 1.929688 -10.738281 1.734375 -11.25 C 1.546875 -11.769531 1.453125 -12.363281 1.453125 -13.03125 C 1.453125 -13.9375 1.679688 -14.71875 2.140625 -15.375 C 2.609375 -16.03125 3.253906 -16.53125 4.078125 -16.875 C 4.910156 -17.226562 5.863281 -17.40625 6.9375 -17.40625 C 7.851562 -17.40625 8.695312 -17.316406 9.46875 -17.140625 C 10.25 -16.972656 10.960938 -16.742188 11.609375 -16.453125 L 11 -14.734375 C 10.375 -14.992188 9.710938 -15.207031 9.015625 -15.375 C 8.328125 -15.550781 7.617188 -15.640625 6.890625 -15.640625 C 6.148438 -15.640625 5.523438 -15.53125 5.015625 -15.3125 C 4.515625 -15.101562 4.128906 -14.800781 3.859375 -14.40625 C 3.597656 -14.019531 3.46875 -13.554688 3.46875 -13.015625 C 3.46875 -12.410156 3.59375 -11.90625 3.84375 -11.5 C 4.101562 -11.101562 4.507812 -10.75 5.0625 -10.4375 C 5.625 -10.132812 6.367188 -9.816406 7.296875 -9.484375 C 8.304688 -9.109375 9.160156 -8.71875 9.859375 -8.3125 C 10.566406 -7.90625 11.101562 -7.40625 11.46875 -6.8125 C 11.84375 -6.21875 12.03125 -5.46875 12.03125 -4.5625 Z M 12.03125 -4.5625 "/></g></g><g style="fill:#ffffff;fill-opacity:1;"><g transform="translate(313.929626, 304.679038)"><path style="stroke:none" d="M 2.34375 0 L 2.34375 -17.15625 L 4.34375 -17.15625 L 4.34375 0 Z M 2.34375 0 "/></g></g><g style="fill:#ffffff;fill-opacity:1;"><g transform="translate(320.639296, 304.679038)"><path style="stroke:none" d="M 12.03125 -4.5625 C 12.03125 -3.550781 11.773438 -2.6875 11.265625 -1.96875 C 10.765625 -1.25 10.0625 -0.703125 9.15625 -0.328125 C 8.25 0.046875 7.179688 0.234375 5.953125 0.234375 C 5.296875 0.234375 4.675781 0.203125 4.09375 0.140625 C 3.519531 0.078125 2.988281 -0.0078125 2.5 -0.125 C 2.019531 -0.25 1.597656 -0.394531 1.234375 -0.5625 L 1.234375 -2.46875 C 1.816406 -2.226562 2.53125 -2.003906 3.375 -1.796875 C 4.21875 -1.585938 5.101562 -1.484375 6.03125 -1.484375 C 6.894531 -1.484375 7.625 -1.597656 8.21875 -1.828125 C 8.8125 -2.066406 9.257812 -2.398438 9.5625 -2.828125 C 9.875 -3.265625 10.03125 -3.789062 10.03125 -4.40625 C 10.03125 -4.988281 9.898438 -5.476562 9.640625 -5.875 C 9.390625 -6.269531 8.960938 -6.628906 8.359375 -6.953125 C 7.765625 -7.273438 6.945312 -7.617188 5.90625 -7.984375 C 5.1875 -8.242188 4.546875 -8.53125 3.984375 -8.84375 C 3.429688 -9.15625 2.96875 -9.503906 2.59375 -9.890625 C 2.21875 -10.285156 1.929688 -10.738281 1.734375 -11.25 C 1.546875 -11.769531 1.453125 -12.363281 1.453125 -13.03125 C 1.453125 -13.9375 1.679688 -14.71875 2.140625 -15.375 C 2.609375 -16.03125 3.253906 -16.53125 4.078125 -16.875 C 4.910156 -17.226562 5.863281 -17.40625 6.9375 -17.40625 C 7.851562 -17.40625 8.695312 -17.316406 9.46875 -17.140625 C 10.25 -16.972656 10.960938 -16.742188 11.609375 -16.453125 L 11 -14.734375 C 10.375 -14.992188 9.710938 -15.207031 9.015625 -15.375 C 8.328125 -15.550781 7.617188 -15.640625 6.890625 -15.640625 C 6.148438 -15.640625 5.523438 -15.53125 5.015625 -15.3125 C 4.515625 -15.101562 4.128906 -14.800781 3.859375 -14.40625 C 3.597656 -14.019531 3.46875 -13.554688 3.46875 -13.015625 C 3.46875 -12.410156 3.59375 -11.90625 3.84375 -11.5 C 4.101562 -11.101562 4.507812 -10.75 5.0625 -10.4375 C 5.625 -10.132812 6.367188 -9.816406 7.296875 -9.484375 C 8.304688 -9.109375 9.160156 -8.71875 9.859375 -8.3125 C 10.566406 -7.90625 11.101562 -7.40625 11.46875 -6.8125 C 11.84375 -6.21875 12.03125 -5.46875 12.03125 -4.5625 Z M 12.03125 -4.5625 "/></g></g><g style="fill:#ffffff;fill-opacity:1;"><g transform="translate(333.812303, 304.679038)"><path style="stroke:none" d="M 7.609375 0 L 5.609375 0 L 5.609375 -15.390625 L 0.21875 -15.390625 L 0.21875 -17.15625 L 12.984375 -17.15625 L 12.984375 -15.390625 L 7.609375 -15.390625 Z M 7.609375 0 "/></g></g><g style="fill:#ffffff;fill-opacity:1;"><g transform="translate(347.043961, 304.679038)"><path style="stroke:none" d="M 11.890625 0 L 2.34375 0 L 2.34375 -17.15625 L 11.890625 -17.15625 L 11.890625 -15.390625 L 4.34375 -15.390625 L 4.34375 -9.84375 L 11.46875 -9.84375 L 11.46875 -8.109375 L 4.34375 -8.109375 L 4.34375 -1.765625 L 11.890625 -1.765625 Z M 11.890625 0 "/></g></g><g style="fill:#ffffff;fill-opacity:1;"><g transform="translate(360.392922, 304.679038)"><path style="stroke:none" d="M 9.890625 0 L 4.125 -15.1875 L 4.03125 -15.1875 C 4.0625 -14.863281 4.085938 -14.46875 4.109375 -14 C 4.140625 -13.539062 4.160156 -13.039062 4.171875 -12.5 C 4.191406 -11.957031 4.203125 -11.40625 4.203125 -10.84375 L 4.203125 0 L 2.34375 0 L 2.34375 -17.15625 L 5.296875 -17.15625 L 10.734375 -2.890625 L 10.8125 -2.890625 L 16.328125 -17.15625 L 19.265625 -17.15625 L 19.265625 0 L 17.296875 0 L 17.296875 -10.984375 C 17.296875 -11.492188 17.300781 -12.003906 17.3125 -12.515625 C 17.332031 -13.023438 17.351562 -13.507812 17.375 -13.96875 C 17.394531 -14.425781 17.421875 -14.820312 17.453125 -15.15625 L 17.359375 -15.15625 L 11.515625 0 Z M 9.890625 0 "/></g></g><g style="fill:#ffffff;fill-opacity:1;"><g transform="translate(381.999938, 304.679038)"><path style="stroke:none" d="M 13.109375 0 L 11 -5.4375 L 4.125 -5.4375 L 2.015625 0 L 0 0 L 6.71875 -17.21875 L 8.5 -17.21875 L 15.171875 0 Z M 10.390625 -7.21875 L 8.390625 -12.625 C 8.335938 -12.769531 8.257812 -13 8.15625 -13.3125 C 8.050781 -13.632812 7.941406 -13.96875 7.828125 -14.3125 C 7.722656 -14.65625 7.632812 -14.9375 7.5625 -15.15625 C 7.488281 -14.832031 7.40625 -14.507812 7.3125 -14.1875 C 7.226562 -13.875 7.140625 -13.582031 7.046875 -13.3125 C 6.960938 -13.039062 6.890625 -12.8125 6.828125 -12.625 L 4.78125 -7.21875 Z M 10.390625 -7.21875 "/></g></g><g style="fill:#ffffff;fill-opacity:1;"><g transform="translate(397.190538, 304.679038)"><path style="stroke:none" d=""/></g></g><g style="fill:#ffffff;fill-opacity:1;"><g transform="translate(403.431, 304.679038)"><path style="stroke:none" d="M 15.96875 -8.734375 C 15.96875 -6.804688 15.613281 -5.191406 14.90625 -3.890625 C 14.207031 -2.597656 13.191406 -1.625 11.859375 -0.96875 C 10.523438 -0.320312 8.90625 0 7 0 L 2.34375 0 L 2.34375 -17.15625 L 7.515625 -17.15625 C 9.265625 -17.15625 10.769531 -16.835938 12.03125 -16.203125 C 13.289062 -15.566406 14.257812 -14.625 14.9375 -13.375 C 15.625 -12.125 15.96875 -10.578125 15.96875 -8.734375 Z M 13.875 -8.671875 C 13.875 -10.210938 13.613281 -11.484375 13.09375 -12.484375 C 12.582031 -13.484375 11.832031 -14.226562 10.84375 -14.71875 C 9.851562 -15.207031 8.644531 -15.453125 7.21875 -15.453125 L 4.34375 -15.453125 L 4.34375 -1.71875 L 6.765625 -1.71875 C 9.128906 -1.71875 10.90625 -2.296875 12.09375 -3.453125 C 13.28125 -4.617188 13.875 -6.359375 13.875 -8.671875 Z M 13.875 -8.671875 "/></g></g><g style="fill:#ffffff;fill-opacity:1;"><g transform="translate(420.862068, 304.679038)"><path style="stroke:none" d="M 11.890625 0 L 2.34375 0 L 2.34375 -17.15625 L 11.890625 -17.15625 L 11.890625 -15.390625 L 4.34375 -15.390625 L 4.34375 -9.84375 L 11.46875 -9.84375 L 11.46875 -8.109375 L 4.34375 -8.109375 L 4.34375 -1.765625 L 11.890625 -1.765625 Z M 11.890625 0 "/></g></g><g style="fill:#ffffff;fill-opacity:1;"><g transform="translate(434.211028, 304.679038)"><path style="stroke:none" d=""/></g></g><g style="fill:#ffffff;fill-opacity:1;"><g transform="translate(440.451491, 304.679038)"><path style="stroke:none" d="M 2.34375 0 L 2.34375 -17.15625 L 4.34375 -17.15625 L 4.34375 0 Z M 2.34375 0 "/></g></g><g style="fill:#ffffff;fill-opacity:1;"><g transform="translate(447.161161, 304.679038)"><path style="stroke:none" d="M 15.765625 0 L 13.453125 0 L 4.109375 -14.40625 L 4.015625 -14.40625 C 4.035156 -14.019531 4.0625 -13.582031 4.09375 -13.09375 C 4.125 -12.613281 4.148438 -12.097656 4.171875 -11.546875 C 4.191406 -10.992188 4.203125 -10.429688 4.203125 -9.859375 L 4.203125 0 L 2.34375 0 L 2.34375 -17.15625 L 4.640625 -17.15625 L 13.953125 -2.796875 L 14.03125 -2.796875 C 14.019531 -3.066406 14 -3.453125 13.96875 -3.953125 C 13.945312 -4.460938 13.925781 -5.007812 13.90625 -5.59375 C 13.882812 -6.175781 13.875 -6.71875 13.875 -7.21875 L 13.875 -17.15625 L 15.765625 -17.15625 Z M 15.765625 0 "/></g></g><g style="fill:#ffffff;fill-opacity:1;"><g transform="translate(465.249119, 304.679038)"><path style="stroke:none" d="M 4.34375 0 L 2.34375 0 L 2.34375 -17.15625 L 11.890625 -17.15625 L 11.890625 -15.390625 L 4.34375 -15.390625 L 4.34375 -9.109375 L 11.4375 -9.109375 L 11.4375 -7.359375 L 4.34375 -7.359375 Z M 4.34375 0 "/></g></g><g style="fill:#ffffff;fill-opacity:1;"><g transform="translate(477.647933, 304.679038)"><path style="stroke:none" d="M 17.21875 -8.59375 C 17.21875 -7.28125 17.050781 -6.082031 16.71875 -5 C 16.382812 -3.914062 15.882812 -2.984375 15.21875 -2.203125 C 14.5625 -1.421875 13.742188 -0.816406 12.765625 -0.390625 C 11.785156 0.0234375 10.648438 0.234375 9.359375 0.234375 C 8.035156 0.234375 6.878906 0.0234375 5.890625 -0.390625 C 4.898438 -0.816406 4.078125 -1.421875 3.421875 -2.203125 C 2.765625 -2.984375 2.273438 -3.914062 1.953125 -5 C 1.628906 -6.09375 1.46875 -7.300781 1.46875 -8.625 C 1.46875 -10.375 1.753906 -11.910156 2.328125 -13.234375 C 2.910156 -14.554688 3.789062 -15.582031 4.96875 -16.3125 C 6.144531 -17.050781 7.625 -17.421875 9.40625 -17.421875 C 11.09375 -17.421875 12.519531 -17.054688 13.6875 -16.328125 C 14.851562 -15.609375 15.734375 -14.585938 16.328125 -13.265625 C 16.921875 -11.941406 17.21875 -10.382812 17.21875 -8.59375 Z M 3.5625 -8.59375 C 3.5625 -7.144531 3.769531 -5.890625 4.1875 -4.828125 C 4.601562 -3.765625 5.238281 -2.941406 6.09375 -2.359375 C 6.945312 -1.773438 8.035156 -1.484375 9.359375 -1.484375 C 10.691406 -1.484375 11.78125 -1.773438 12.625 -2.359375 C 13.476562 -2.941406 14.109375 -3.765625 14.515625 -4.828125 C 14.921875 -5.890625 15.125 -7.144531 15.125 -8.59375 C 15.125 -10.8125 14.660156 -12.546875 13.734375 -13.796875 C 12.804688 -15.046875 11.363281 -15.671875 9.40625 -15.671875 C 8.070312 -15.671875 6.972656 -15.382812 6.109375 -14.8125 C 5.253906 -14.238281 4.613281 -13.425781 4.1875 -12.375 C 3.769531 -11.320312 3.5625 -10.0625 3.5625 -8.59375 Z M 3.5625 -8.59375 "/></g></g><g style="fill:#ffffff;fill-opacity:1;"><g transform="translate(496.33412, 304.679038)"><path style="stroke:none" d="M 6.984375 -17.15625 C 8.390625 -17.15625 9.550781 -16.976562 10.46875 -16.625 C 11.382812 -16.28125 12.070312 -15.75 12.53125 -15.03125 C 12.988281 -14.320312 13.21875 -13.421875 13.21875 -12.328125 C 13.21875 -11.410156 13.050781 -10.648438 12.71875 -10.046875 C 12.394531 -9.441406 11.960938 -8.953125 11.421875 -8.578125 C 10.890625 -8.203125 10.328125 -7.910156 9.734375 -7.703125 L 14.4375 0 L 12.109375 0 L 7.90625 -7.15625 L 4.34375 -7.15625 L 4.34375 0 L 2.34375 0 L 2.34375 -17.15625 Z M 6.859375 -15.4375 L 4.34375 -15.4375 L 4.34375 -8.84375 L 7.0625 -8.84375 C 8.46875 -8.84375 9.5 -9.128906 10.15625 -9.703125 C 10.8125 -10.273438 11.140625 -11.117188 11.140625 -12.234375 C 11.140625 -13.390625 10.789062 -14.210938 10.09375 -14.703125 C 9.394531 -15.191406 8.316406 -15.4375 6.859375 -15.4375 Z M 6.859375 -15.4375 "/></g></g><g style="fill:#ffffff;fill-opacity:1;"><g transform="translate(511.161084, 304.679038)"><path style="stroke:none" d="M 9.890625 0 L 4.125 -15.1875 L 4.03125 -15.1875 C 4.0625 -14.863281 4.085938 -14.46875 4.109375 -14 C 4.140625 -13.539062 4.160156 -13.039062 4.171875 -12.5 C 4.191406 -11.957031 4.203125 -11.40625 4.203125 -10.84375 L 4.203125 0 L 2.34375 0 L 2.34375 -17.15625 L 5.296875 -17.15625 L 10.734375 -2.890625 L 10.8125 -2.890625 L 16.328125 -17.15625 L 19.265625 -17.15625 L 19.265625 0 L 17.296875 0 L 17.296875 -10.984375 C 17.296875 -11.492188 17.300781 -12.003906 17.3125 -12.515625 C 17.332031 -13.023438 17.351562 -13.507812 17.375 -13.96875 C 17.394531 -14.425781 17.421875 -14.820312 17.453125 -15.15625 L 17.359375 -15.15625 L 11.515625 0 Z M 9.890625 0 "/></g></g><g style="fill:#ffffff;fill-opacity:1;"><g transform="translate(532.768122, 304.679038)"><path style="stroke:none" d="M 13.109375 0 L 11 -5.4375 L 4.125 -5.4375 L 2.015625 0 L 0 0 L 6.71875 -17.21875 L 8.5 -17.21875 L 15.171875 0 Z M 10.390625 -7.21875 L 8.390625 -12.625 C 8.335938 -12.769531 8.257812 -13 8.15625 -13.3125 C 8.050781 -13.632812 7.941406 -13.96875 7.828125 -14.3125 C 7.722656 -14.65625 7.632812 -14.9375 7.5625 -15.15625 C 7.488281 -14.832031 7.40625 -14.507812 7.3125 -14.1875 C 7.226562 -13.875 7.140625 -13.582031 7.046875 -13.3125 C 6.960938 -13.039062 6.890625 -12.8125 6.828125 -12.625 L 4.78125 -7.21875 Z M 10.390625 -7.21875 "/></g></g><g style="fill:#ffffff;fill-opacity:1;"><g transform="translate(547.958711, 304.679038)"><path style="stroke:none" d="M 9.6875 -15.640625 C 8.738281 -15.640625 7.882812 -15.476562 7.125 -15.15625 C 6.375 -14.832031 5.734375 -14.363281 5.203125 -13.75 C 4.671875 -13.132812 4.265625 -12.390625 3.984375 -11.515625 C 3.703125 -10.648438 3.5625 -9.675781 3.5625 -8.59375 C 3.5625 -7.15625 3.785156 -5.90625 4.234375 -4.84375 C 4.691406 -3.78125 5.367188 -2.957031 6.265625 -2.375 C 7.160156 -1.800781 8.28125 -1.515625 9.625 -1.515625 C 10.382812 -1.515625 11.101562 -1.578125 11.78125 -1.703125 C 12.457031 -1.835938 13.117188 -2 13.765625 -2.1875 L 13.765625 -0.453125 C 13.140625 -0.222656 12.484375 -0.0507812 11.796875 0.0625 C 11.109375 0.175781 10.289062 0.234375 9.34375 0.234375 C 7.59375 0.234375 6.132812 -0.125 4.96875 -0.84375 C 3.800781 -1.570312 2.925781 -2.597656 2.34375 -3.921875 C 1.757812 -5.242188 1.46875 -6.800781 1.46875 -8.59375 C 1.46875 -9.894531 1.648438 -11.082031 2.015625 -12.15625 C 2.378906 -13.238281 2.910156 -14.171875 3.609375 -14.953125 C 4.304688 -15.734375 5.164062 -16.335938 6.1875 -16.765625 C 7.207031 -17.191406 8.378906 -17.40625 9.703125 -17.40625 C 10.566406 -17.40625 11.398438 -17.316406 12.203125 -17.140625 C 13.015625 -16.972656 13.742188 -16.726562 14.390625 -16.40625 L 13.59375 -14.71875 C 13.050781 -14.96875 12.453125 -15.179688 11.796875 -15.359375 C 11.140625 -15.546875 10.4375 -15.640625 9.6875 -15.640625 Z M 9.6875 -15.640625 "/></g></g><g style="fill:#ffffff;fill-opacity:1;"><g transform="translate(563.09066, 304.679038)"><path style="stroke:none" d="M 2.34375 0 L 2.34375 -17.15625 L 4.34375 -17.15625 L 4.34375 0 Z M 2.34375 0 "/></g></g><g style="fill:#ffffff;fill-opacity:1;"><g transform="translate(569.800331, 304.679038)"><path style="stroke:none" d="M 17.21875 -8.59375 C 17.21875 -7.28125 17.050781 -6.082031 16.71875 -5 C 16.382812 -3.914062 15.882812 -2.984375 15.21875 -2.203125 C 14.5625 -1.421875 13.742188 -0.816406 12.765625 -0.390625 C 11.785156 0.0234375 10.648438 0.234375 9.359375 0.234375 C 8.035156 0.234375 6.878906 0.0234375 5.890625 -0.390625 C 4.898438 -0.816406 4.078125 -1.421875 3.421875 -2.203125 C 2.765625 -2.984375 2.273438 -3.914062 1.953125 -5 C 1.628906 -6.09375 1.46875 -7.300781 1.46875 -8.625 C 1.46875 -10.375 1.753906 -11.910156 2.328125 -13.234375 C 2.910156 -14.554688 3.789062 -15.582031 4.96875 -16.3125 C 6.144531 -17.050781 7.625 -17.421875 9.40625 -17.421875 C 11.09375 -17.421875 12.519531 -17.054688 13.6875 -16.328125 C 14.851562 -15.609375 15.734375 -14.585938 16.328125 -13.265625 C 16.921875 -11.941406 17.21875 -10.382812 17.21875 -8.59375 Z M 3.5625 -8.59375 C 3.5625 -7.144531 3.769531 -5.890625 4.1875 -4.828125 C 4.601562 -3.765625 5.238281 -2.941406 6.09375 -2.359375 C 6.945312 -1.773438 8.035156 -1.484375 9.359375 -1.484375 C 10.691406 -1.484375 11.78125 -1.773438 12.625 -2.359375 C 13.476562 -2.941406 14.109375 -3.765625 14.515625 -4.828125 C 14.921875 -5.890625 15.125 -7.144531 15.125 -8.59375 C 15.125 -10.8125 14.660156 -12.546875 13.734375 -13.796875 C 12.804688 -15.046875 11.363281 -15.671875 9.40625 -15.671875 C 8.070312 -15.671875 6.972656 -15.382812 6.109375 -14.8125 C 5.253906 -14.238281 4.613281 -13.425781 4.1875 -12.375 C 3.769531 -11.320312 3.5625 -10.0625 3.5625 -8.59375 Z M 3.5625 -8.59375 "/></g></g><g style="fill:#ffffff;fill-opacity:1;"><g transform="translate(588.486517, 304.679038)"><path style="stroke:none" d="M 15.765625 0 L 13.453125 0 L 4.109375 -14.40625 L 4.015625 -14.40625 C 4.035156 -14.019531 4.0625 -13.582031 4.09375 -13.09375 C 4.125 -12.613281 4.148438 -12.097656 4.171875 -11.546875 C 4.191406 -10.992188 4.203125 -10.429688 4.203125 -9.859375 L 4.203125 0 L 2.34375 0 L 2.34375 -17.15625 L 4.640625 -17.15625 L 13.953125 -2.796875 L 14.03125 -2.796875 C 14.019531 -3.066406 14 -3.453125 13.96875 -3.953125 C 13.945312 -4.460938 13.925781 -5.007812 13.90625 -5.59375 C 13.882812 -6.175781 13.875 -6.71875 13.875 -7.21875 L 13.875 -17.15625 L 15.765625 -17.15625 Z M 15.765625 0 "/></g></g><g style="fill:#ffffff;fill-opacity:1;"><g transform="translate(606.574498, 304.679038)"><path style="stroke:none" d=""/></g></g><g style="fill:#ffffff;fill-opacity:1;"><g transform="translate(612.814961, 304.679038)"><path style="stroke:none" d="M 2.34375 0 L 2.34375 -17.15625 L 4.34375 -17.15625 L 4.34375 0 Z M 2.34375 0 "/></g></g><g style="fill:#ffffff;fill-opacity:1;"><g transform="translate(619.524631, 304.679038)"><path style="stroke:none" d="M 15.765625 0 L 13.453125 0 L 4.109375 -14.40625 L 4.015625 -14.40625 C 4.035156 -14.019531 4.0625 -13.582031 4.09375 -13.09375 C 4.125 -12.613281 4.148438 -12.097656 4.171875 -11.546875 C 4.191406 -10.992188 4.203125 -10.429688 4.203125 -9.859375 L 4.203125 0 L 2.34375 0 L 2.34375 -17.15625 L 4.640625 -17.15625 L 13.953125 -2.796875 L 14.03125 -2.796875 C 14.019531 -3.066406 14 -3.453125 13.96875 -3.953125 C 13.945312 -4.460938 13.925781 -5.007812 13.90625 -5.59375 C 13.882812 -6.175781 13.875 -6.71875 13.875 -7.21875 L 13.875 -17.15625 L 15.765625 -17.15625 Z M 15.765625 0 "/></g></g><g style="fill:#ffffff;fill-opacity:1;"><g transform="translate(637.612567, 304.679038)"><path style="stroke:none" d="M 7.609375 0 L 5.609375 0 L 5.609375 -15.390625 L 0.21875 -15.390625 L 0.21875 -17.15625 L 12.984375 -17.15625 L 12.984375 -15.390625 L 7.609375 -15.390625 Z M 7.609375 0 "/></g></g><g style="fill:#ffffff;fill-opacity:1;"><g transform="translate(650.844225, 304.679038)"><path style="stroke:none" d="M 11.890625 0 L 2.34375 0 L 2.34375 -17.15625 L 11.890625 -17.15625 L 11.890625 -15.390625 L 4.34375 -15.390625 L 4.34375 -9.84375 L 11.46875 -9.84375 L 11.46875 -8.109375 L 4.34375 -8.109375 L 4.34375 -1.765625 L 11.890625 -1.765625 Z M 11.890625 0 "/></g></g><g style="fill:#ffffff;fill-opacity:1;"><g transform="translate(664.193207, 304.679038)"><path style="stroke:none" d="M 9.6875 -8.984375 L 15.671875 -8.984375 L 15.671875 -0.671875 C 14.773438 -0.367188 13.847656 -0.144531 12.890625 0 C 11.941406 0.15625 10.882812 0.234375 9.71875 0.234375 C 7.9375 0.234375 6.429688 -0.117188 5.203125 -0.828125 C 3.984375 -1.546875 3.054688 -2.5625 2.421875 -3.875 C 1.785156 -5.195312 1.46875 -6.765625 1.46875 -8.578125 C 1.46875 -10.347656 1.816406 -11.894531 2.515625 -13.21875 C 3.210938 -14.539062 4.222656 -15.566406 5.546875 -16.296875 C 6.878906 -17.035156 8.476562 -17.40625 10.34375 -17.40625 C 11.289062 -17.40625 12.191406 -17.316406 13.046875 -17.140625 C 13.910156 -16.960938 14.707031 -16.710938 15.4375 -16.390625 L 14.671875 -14.65625 C 14.046875 -14.925781 13.347656 -15.160156 12.578125 -15.359375 C 11.816406 -15.554688 11.03125 -15.65625 10.21875 -15.65625 C 8.820312 -15.65625 7.625 -15.363281 6.625 -14.78125 C 5.625 -14.207031 4.859375 -13.390625 4.328125 -12.328125 C 3.804688 -11.273438 3.546875 -10.023438 3.546875 -8.578125 C 3.546875 -7.148438 3.773438 -5.90625 4.234375 -4.84375 C 4.691406 -3.78125 5.410156 -2.953125 6.390625 -2.359375 C 7.367188 -1.773438 8.628906 -1.484375 10.171875 -1.484375 C 10.941406 -1.484375 11.601562 -1.53125 12.15625 -1.625 C 12.71875 -1.71875 13.226562 -1.828125 13.6875 -1.953125 L 13.6875 -7.203125 L 9.6875 -7.203125 Z M 9.6875 -8.984375 "/></g></g><g style="fill:#ffffff;fill-opacity:1;"><g transform="translate(681.659453, 304.679038)"><path style="stroke:none" d="M 6.984375 -17.15625 C 8.390625 -17.15625 9.550781 -16.976562 10.46875 -16.625 C 11.382812 -16.28125 12.070312 -15.75 12.53125 -15.03125 C 12.988281 -14.320312 13.21875 -13.421875 13.21875 -12.328125 C 13.21875 -11.410156 13.050781 -10.648438 12.71875 -10.046875 C 12.394531 -9.441406 11.960938 -8.953125 11.421875 -8.578125 C 10.890625 -8.203125 10.328125 -7.910156 9.734375 -7.703125 L 14.4375 0 L 12.109375 0 L 7.90625 -7.15625 L 4.34375 -7.15625 L 4.34375 0 L 2.34375 0 L 2.34375 -17.15625 Z M 6.859375 -15.4375 L 4.34375 -15.4375 L 4.34375 -8.84375 L 7.0625 -8.84375 C 8.46875 -8.84375 9.5 -9.128906 10.15625 -9.703125 C 10.8125 -10.273438 11.140625 -11.117188 11.140625 -12.234375 C 11.140625 -13.390625 10.789062 -14.210938 10.09375 -14.703125 C 9.394531 -15.191406 8.316406 -15.4375 6.859375 -15.4375 Z M 6.859375 -15.4375 "/></g></g><g style="fill:#ffffff;fill-opacity:1;"><g transform="translate(696.486418, 304.679038)"><path style="stroke:none" d="M 13.109375 0 L 11 -5.4375 L 4.125 -5.4375 L 2.015625 0 L 0 0 L 6.71875 -17.21875 L 8.5 -17.21875 L 15.171875 0 Z M 10.390625 -7.21875 L 8.390625 -12.625 C 8.335938 -12.769531 8.257812 -13 8.15625 -13.3125 C 8.050781 -13.632812 7.941406 -13.96875 7.828125 -14.3125 C 7.722656 -14.65625 7.632812 -14.9375 7.5625 -15.15625 C 7.488281 -14.832031 7.40625 -14.507812 7.3125 -14.1875 C 7.226562 -13.875 7.140625 -13.582031 7.046875 -13.3125 C 6.960938 -13.039062 6.890625 -12.8125 6.828125 -12.625 L 4.78125 -7.21875 Z M 10.390625 -7.21875 "/></g></g><g style="fill:#ffffff;fill-opacity:1;"><g transform="translate(711.677029, 304.679038)"><path style="stroke:none" d="M 15.96875 -8.734375 C 15.96875 -6.804688 15.613281 -5.191406 14.90625 -3.890625 C 14.207031 -2.597656 13.191406 -1.625 11.859375 -0.96875 C 10.523438 -0.320312 8.90625 0 7 0 L 2.34375 0 L 2.34375 -17.15625 L 7.515625 -17.15625 C 9.265625 -17.15625 10.769531 -16.835938 12.03125 -16.203125 C 13.289062 -15.566406 14.257812 -14.625 14.9375 -13.375 C 15.625 -12.125 15.96875 -10.578125 15.96875 -8.734375 Z M 13.875 -8.671875 C 13.875 -10.210938 13.613281 -11.484375 13.09375 -12.484375 C 12.582031 -13.484375 11.832031 -14.226562 10.84375 -14.71875 C 9.851562 -15.207031 8.644531 -15.453125 7.21875 -15.453125 L 4.34375 -15.453125 L 4.34375 -1.71875 L 6.765625 -1.71875 C 9.128906 -1.71875 10.90625 -2.296875 12.09375 -3.453125 C 13.28125 -4.617188 13.875 -6.359375 13.875 -8.671875 Z M 13.875 -8.671875 "/></g></g><g style="fill:#ffffff;fill-opacity:1;"><g transform="translate(729.108073, 304.679038)"><path style="stroke:none" d="M 17.21875 -8.59375 C 17.21875 -7.28125 17.050781 -6.082031 16.71875 -5 C 16.382812 -3.914062 15.882812 -2.984375 15.21875 -2.203125 C 14.5625 -1.421875 13.742188 -0.816406 12.765625 -0.390625 C 11.785156 0.0234375 10.648438 0.234375 9.359375 0.234375 C 8.035156 0.234375 6.878906 0.0234375 5.890625 -0.390625 C 4.898438 -0.816406 4.078125 -1.421875 3.421875 -2.203125 C 2.765625 -2.984375 2.273438 -3.914062 1.953125 -5 C 1.628906 -6.09375 1.46875 -7.300781 1.46875 -8.625 C 1.46875 -10.375 1.753906 -11.910156 2.328125 -13.234375 C 2.910156 -14.554688 3.789062 -15.582031 4.96875 -16.3125 C 6.144531 -17.050781 7.625 -17.421875 9.40625 -17.421875 C 11.09375 -17.421875 12.519531 -17.054688 13.6875 -16.328125 C 14.851562 -15.609375 15.734375 -14.585938 16.328125 -13.265625 C 16.921875 -11.941406 17.21875 -10.382812 17.21875 -8.59375 Z M 3.5625 -8.59375 C 3.5625 -7.144531 3.769531 -5.890625 4.1875 -4.828125 C 4.601562 -3.765625 5.238281 -2.941406 6.09375 -2.359375 C 6.945312 -1.773438 8.035156 -1.484375 9.359375 -1.484375 C 10.691406 -1.484375 11.78125 -1.773438 12.625 -2.359375 C 13.476562 -2.941406 14.109375 -3.765625 14.515625 -4.828125 C 14.921875 -5.890625 15.125 -7.144531 15.125 -8.59375 C 15.125 -10.8125 14.660156 -12.546875 13.734375 -13.796875 C 12.804688 -15.046875 11.363281 -15.671875 9.40625 -15.671875 C 8.070312 -15.671875 6.972656 -15.382812 6.109375 -14.8125 C 5.253906 -14.238281 4.613281 -13.425781 4.1875 -12.375 C 3.769531 -11.320312 3.5625 -10.0625 3.5625 -8.59375 Z M 3.5625 -8.59375 "/></g></g><g style="fill:#ffffff;fill-opacity:1;"><g transform="translate(747.794305, 304.679038)"><path style="stroke:none" d=""/></g></g><g style="fill:#ffffff;fill-opacity:1;"><g transform="translate(754.034722, 304.679038)"><path style="stroke:none" d="M 13.109375 0 L 11 -5.4375 L 4.125 -5.4375 L 2.015625 0 L 0 0 L 6.71875 -17.21875 L 8.5 -17.21875 L 15.171875 0 Z M 10.390625 -7.21875 L 8.390625 -12.625 C 8.335938 -12.769531 8.257812 -13 8.15625 -13.3125 C 8.050781 -13.632812 7.941406 -13.96875 7.828125 -14.3125 C 7.722656 -14.65625 7.632812 -14.9375 7.5625 -15.15625 C 7.488281 -14.832031 7.40625 -14.507812 7.3125 -14.1875 C 7.226562 -13.875 7.140625 -13.582031 7.046875 -13.3125 C 6.960938 -13.039062 6.890625 -12.8125 6.828125 -12.625 L 4.78125 -7.21875 Z M 10.390625 -7.21875 "/></g></g><g style="fill:#ffffff;fill-opacity:1;"><g transform="translate(769.225333, 304.679038)"><path style="stroke:none" d="M 15.96875 -8.734375 C 15.96875 -6.804688 15.613281 -5.191406 14.90625 -3.890625 C 14.207031 -2.597656 13.191406 -1.625 11.859375 -0.96875 C 10.523438 -0.320312 8.90625 0 7 0 L 2.34375 0 L 2.34375 -17.15625 L 7.515625 -17.15625 C 9.265625 -17.15625 10.769531 -16.835938 12.03125 -16.203125 C 13.289062 -15.566406 14.257812 -14.625 14.9375 -13.375 C 15.625 -12.125 15.96875 -10.578125 15.96875 -8.734375 Z M 13.875 -8.671875 C 13.875 -10.210938 13.613281 -11.484375 13.09375 -12.484375 C 12.582031 -13.484375 11.832031 -14.226562 10.84375 -14.71875 C 9.851562 -15.207031 8.644531 -15.453125 7.21875 -15.453125 L 4.34375 -15.453125 L 4.34375 -1.71875 L 6.765625 -1.71875 C 9.128906 -1.71875 10.90625 -2.296875 12.09375 -3.453125 C 13.28125 -4.617188 13.875 -6.359375 13.875 -8.671875 Z M 13.875 -8.671875 "/></g></g><g style="fill:#ffffff;fill-opacity:1;"><g transform="translate(786.656423, 304.679038)"><path style="stroke:none" d="M 9.890625 0 L 4.125 -15.1875 L 4.03125 -15.1875 C 4.0625 -14.863281 4.085938 -14.46875 4.109375 -14 C 4.140625 -13.539062 4.160156 -13.039062 4.171875 -12.5 C 4.191406 -11.957031 4.203125 -11.40625 4.203125 -10.84375 L 4.203125 0 L 2.34375 0 L 2.34375 -17.15625 L 5.296875 -17.15625 L 10.734375 -2.890625 L 10.8125 -2.890625 L 16.328125 -17.15625 L 19.265625 -17.15625 L 19.265625 0 L 17.296875 0 L 17.296875 -10.984375 C 17.296875 -11.492188 17.300781 -12.003906 17.3125 -12.515625 C 17.332031 -13.023438 17.351562 -13.507812 17.375 -13.96875 C 17.394531 -14.425781 17.421875 -14.820312 17.453125 -15.15625 L 17.359375 -15.15625 L 11.515625 0 Z M 9.890625 0 "/></g></g><g style="fill:#ffffff;fill-opacity:1;"><g transform="translate(808.263416, 304.679038)"><path style="stroke:none" d="M 2.34375 0 L 2.34375 -17.15625 L 4.34375 -17.15625 L 4.34375 0 Z M 2.34375 0 "/></g></g><g style="fill:#ffffff;fill-opacity:1;"><g transform="translate(814.973086, 304.679038)"><path style="stroke:none" d="M 15.765625 0 L 13.453125 0 L 4.109375 -14.40625 L 4.015625 -14.40625 C 4.035156 -14.019531 4.0625 -13.582031 4.09375 -13.09375 C 4.125 -12.613281 4.148438 -12.097656 4.171875 -11.546875 C 4.191406 -10.992188 4.203125 -10.429688 4.203125 -9.859375 L 4.203125 0 L 2.34375 0 L 2.34375 -17.15625 L 4.640625 -17.15625 L 13.953125 -2.796875 L 14.03125 -2.796875 C 14.019531 -3.066406 14 -3.453125 13.96875 -3.953125 C 13.945312 -4.460938 13.925781 -5.007812 13.90625 -5.59375 C 13.882812 -6.175781 13.875 -6.71875 13.875 -7.21875 L 13.875 -17.15625 L 15.765625 -17.15625 Z M 15.765625 0 "/></g></g><g style="fill:#ffffff;fill-opacity:1;"><g transform="translate(833.061067, 304.679038)"><path style="stroke:none" d="M 2.34375 0 L 2.34375 -17.15625 L 4.34375 -17.15625 L 4.34375 0 Z M 2.34375 0 "/></g></g><g style="fill:#ffffff;fill-opacity:1;"><g transform="translate(839.770738, 304.679038)"><path style="stroke:none" d="M 12.03125 -4.5625 C 12.03125 -3.550781 11.773438 -2.6875 11.265625 -1.96875 C 10.765625 -1.25 10.0625 -0.703125 9.15625 -0.328125 C 8.25 0.046875 7.179688 0.234375 5.953125 0.234375 C 5.296875 0.234375 4.675781 0.203125 4.09375 0.140625 C 3.519531 0.078125 2.988281 -0.0078125 2.5 -0.125 C 2.019531 -0.25 1.597656 -0.394531 1.234375 -0.5625 L 1.234375 -2.46875 C 1.816406 -2.226562 2.53125 -2.003906 3.375 -1.796875 C 4.21875 -1.585938 5.101562 -1.484375 6.03125 -1.484375 C 6.894531 -1.484375 7.625 -1.597656 8.21875 -1.828125 C 8.8125 -2.066406 9.257812 -2.398438 9.5625 -2.828125 C 9.875 -3.265625 10.03125 -3.789062 10.03125 -4.40625 C 10.03125 -4.988281 9.898438 -5.476562 9.640625 -5.875 C 9.390625 -6.269531 8.960938 -6.628906 8.359375 -6.953125 C 7.765625 -7.273438 6.945312 -7.617188 5.90625 -7.984375 C 5.1875 -8.242188 4.546875 -8.53125 3.984375 -8.84375 C 3.429688 -9.15625 2.96875 -9.503906 2.59375 -9.890625 C 2.21875 -10.285156 1.929688 -10.738281 1.734375 -11.25 C 1.546875 -11.769531 1.453125 -12.363281 1.453125 -13.03125 C 1.453125 -13.9375 1.679688 -14.71875 2.140625 -15.375 C 2.609375 -16.03125 3.253906 -16.53125 4.078125 -16.875 C 4.910156 -17.226562 5.863281 -17.40625 6.9375 -17.40625 C 7.851562 -17.40625 8.695312 -17.316406 9.46875 -17.140625 C 10.25 -16.972656 10.960938 -16.742188 11.609375 -16.453125 L 11 -14.734375 C 10.375 -14.992188 9.710938 -15.207031 9.015625 -15.375 C 8.328125 -15.550781 7.617188 -15.640625 6.890625 -15.640625 C 6.148438 -15.640625 5.523438 -15.53125 5.015625 -15.3125 C 4.515625 -15.101562 4.128906 -14.800781 3.859375 -14.40625 C 3.597656 -14.019531 3.46875 -13.554688 3.46875 -13.015625 C 3.46875 -12.410156 3.59375 -11.90625 3.84375 -11.5 C 4.101562 -11.101562 4.507812 -10.75 5.0625 -10.4375 C 5.625 -10.132812 6.367188 -9.816406 7.296875 -9.484375 C 8.304688 -9.109375 9.160156 -8.71875 9.859375 -8.3125 C 10.566406 -7.90625 11.101562 -7.40625 11.46875 -6.8125 C 11.84375 -6.21875 12.03125 -5.46875 12.03125 -4.5625 Z M 12.03125 -4.5625 "/></g></g><g style="fill:#ffffff;fill-opacity:1;"><g transform="translate(852.943711, 304.679038)"><path style="stroke:none" d="M 7.609375 0 L 5.609375 0 L 5.609375 -15.390625 L 0.21875 -15.390625 L 0.21875 -17.15625 L 12.984375 -17.15625 L 12.984375 -15.390625 L 7.609375 -15.390625 Z M 7.609375 0 "/></g></g><g style="fill:#ffffff;fill-opacity:1;"><g transform="translate(866.175369, 304.679038)"><path style="stroke:none" d="M 6.984375 -17.15625 C 8.390625 -17.15625 9.550781 -16.976562 10.46875 -16.625 C 11.382812 -16.28125 12.070312 -15.75 12.53125 -15.03125 C 12.988281 -14.320312 13.21875 -13.421875 13.21875 -12.328125 C 13.21875 -11.410156 13.050781 -10.648438 12.71875 -10.046875 C 12.394531 -9.441406 11.960938 -8.953125 11.421875 -8.578125 C 10.890625 -8.203125 10.328125 -7.910156 9.734375 -7.703125 L 14.4375 0 L 12.109375 0 L 7.90625 -7.15625 L 4.34375 -7.15625 L 4.34375 0 L 2.34375 0 L 2.34375 -17.15625 Z M 6.859375 -15.4375 L 4.34375 -15.4375 L 4.34375 -8.84375 L 7.0625 -8.84375 C 8.46875 -8.84375 9.5 -9.128906 10.15625 -9.703125 C 10.8125 -10.273438 11.140625 -11.117188 11.140625 -12.234375 C 11.140625 -13.390625 10.789062 -14.210938 10.09375 -14.703125 C 9.394531 -15.191406 8.316406 -15.4375 6.859375 -15.4375 Z M 6.859375 -15.4375 "/></g></g><g style="fill:#ffffff;fill-opacity:1;"><g transform="translate(881.002333, 304.679038)"><path style="stroke:none" d="M 13.109375 0 L 11 -5.4375 L 4.125 -5.4375 L 2.015625 0 L 0 0 L 6.71875 -17.21875 L 8.5 -17.21875 L 15.171875 0 Z M 10.390625 -7.21875 L 8.390625 -12.625 C 8.335938 -12.769531 8.257812 -13 8.15625 -13.3125 C 8.050781 -13.632812 7.941406 -13.96875 7.828125 -14.3125 C 7.722656 -14.65625 7.632812 -14.9375 7.5625 -15.15625 C 7.488281 -14.832031 7.40625 -14.507812 7.3125 -14.1875 C 7.226562 -13.875 7.140625 -13.582031 7.046875 -13.3125 C 6.960938 -13.039062 6.890625 -12.8125 6.828125 -12.625 L 4.78125 -7.21875 Z M 10.390625 -7.21875 "/></g></g><g style="fill:#ffffff;fill-opacity:1;"><g transform="translate(896.192944, 304.679038)"><path style="stroke:none" d="M 7.609375 0 L 5.609375 0 L 5.609375 -15.390625 L 0.21875 -15.390625 L 0.21875 -17.15625 L 12.984375 -17.15625 L 12.984375 -15.390625 L 7.609375 -15.390625 Z M 7.609375 0 "/></g></g><g style="fill:#ffffff;fill-opacity:1;"><g transform="translate(909.424602, 304.679038)"><path style="stroke:none" d="M 2.34375 0 L 2.34375 -17.15625 L 4.34375 -17.15625 L 4.34375 0 Z M 2.34375 0 "/></g></g><g style="fill:#ffffff;fill-opacity:1;"><g transform="translate(916.134272, 304.679038)"><path style="stroke:none" d="M 14.328125 -17.15625 L 8.171875 0 L 6.15625 0 L 0 -17.15625 L 2.09375 -17.15625 L 6.109375 -5.859375 C 6.265625 -5.398438 6.40625 -4.960938 6.53125 -4.546875 C 6.664062 -4.140625 6.785156 -3.742188 6.890625 -3.359375 C 6.992188 -2.972656 7.082031 -2.597656 7.15625 -2.234375 C 7.238281 -2.597656 7.328125 -2.972656 7.421875 -3.359375 C 7.523438 -3.742188 7.644531 -4.144531 7.78125 -4.5625 C 7.914062 -4.988281 8.0625 -5.429688 8.21875 -5.890625 L 12.21875 -17.15625 Z M 14.328125 -17.15625 "/></g></g><g style="fill:#ffffff;fill-opacity:1;"><g transform="translate(930.456827, 304.679038)"><path style="stroke:none" d="M 17.21875 -8.59375 C 17.21875 -7.28125 17.050781 -6.082031 16.71875 -5 C 16.382812 -3.914062 15.882812 -2.984375 15.21875 -2.203125 C 14.5625 -1.421875 13.742188 -0.816406 12.765625 -0.390625 C 11.785156 0.0234375 10.648438 0.234375 9.359375 0.234375 C 8.035156 0.234375 6.878906 0.0234375 5.890625 -0.390625 C 4.898438 -0.816406 4.078125 -1.421875 3.421875 -2.203125 C 2.765625 -2.984375 2.273438 -3.914062 1.953125 -5 C 1.628906 -6.09375 1.46875 -7.300781 1.46875 -8.625 C 1.46875 -10.375 1.753906 -11.910156 2.328125 -13.234375 C 2.910156 -14.554688 3.789062 -15.582031 4.96875 -16.3125 C 6.144531 -17.050781 7.625 -17.421875 9.40625 -17.421875 C 11.09375 -17.421875 12.519531 -17.054688 13.6875 -16.328125 C 14.851562 -15.609375 15.734375 -14.585938 16.328125 -13.265625 C 16.921875 -11.941406 17.21875 -10.382812 17.21875 -8.59375 Z M 3.5625 -8.59375 C 3.5625 -7.144531 3.769531 -5.890625 4.1875 -4.828125 C 4.601562 -3.765625 5.238281 -2.941406 6.09375 -2.359375 C 6.945312 -1.773438 8.035156 -1.484375 9.359375 -1.484375 C 10.691406 -1.484375 11.78125 -1.773438 12.625 -2.359375 C 13.476562 -2.941406 14.109375 -3.765625 14.515625 -4.828125 C 14.921875 -5.890625 15.125 -7.144531 15.125 -8.59375 C 15.125 -10.8125 14.660156 -12.546875 13.734375 -13.796875 C 12.804688 -15.046875 11.363281 -15.671875 9.40625 -15.671875 C 8.070312 -15.671875 6.972656 -15.382812 6.109375 -14.8125 C 5.253906 -14.238281 4.613281 -13.425781 4.1875 -12.375 C 3.769531 -11.320312 3.5625 -10.0625 3.5625 -8.59375 Z M 3.5625 -8.59375 "/></g></g><g style="fill:#ffffff;fill-opacity:1;"><g transform="translate(949.143059, 304.679038)"><path style="stroke:none" d="M 0.96875 -5.578125 L 0.96875 -7.328125 L 6.78125 -7.328125 L 6.78125 -5.578125 Z M 0.96875 -5.578125 "/></g></g><g style="fill:#ffffff;fill-opacity:1;"><g transform="translate(956.873268, 304.679038)"><path style="stroke:none" d="M 4.34375 0 L 2.34375 0 L 2.34375 -17.15625 L 11.890625 -17.15625 L 11.890625 -15.390625 L 4.34375 -15.390625 L 4.34375 -9.109375 L 11.4375 -9.109375 L 11.4375 -7.359375 L 4.34375 -7.359375 Z M 4.34375 0 "/></g></g><g style="fill:#ffffff;fill-opacity:1;"><g transform="translate(969.272071, 304.679038)"><path style="stroke:none" d="M 2.34375 0 L 2.34375 -17.15625 L 4.34375 -17.15625 L 4.34375 0 Z M 2.34375 0 "/></g></g><g style="fill:#ffffff;fill-opacity:1;"><g transform="translate(975.981741, 304.679038)"><path style="stroke:none" d="M 15.765625 0 L 13.453125 0 L 4.109375 -14.40625 L 4.015625 -14.40625 C 4.035156 -14.019531 4.0625 -13.582031 4.09375 -13.09375 C 4.125 -12.613281 4.148438 -12.097656 4.171875 -11.546875 C 4.191406 -10.992188 4.203125 -10.429688 4.203125 -9.859375 L 4.203125 0 L 2.34375 0 L 2.34375 -17.15625 L 4.640625 -17.15625 L 13.953125 -2.796875 L 14.03125 -2.796875 C 14.019531 -3.066406 14 -3.453125 13.96875 -3.953125 C 13.945312 -4.460938 13.925781 -5.007812 13.90625 -5.59375 C 13.882812 -6.175781 13.875 -6.71875 13.875 -7.21875 L 13.875 -17.15625 L 15.765625 -17.15625 Z M 15.765625 0 "/></g></g><g style="fill:#ffffff;fill-opacity:1;"><g transform="translate(994.069676, 304.679038)"><path style="stroke:none" d="M 13.109375 0 L 11 -5.4375 L 4.125 -5.4375 L 2.015625 0 L 0 0 L 6.71875 -17.21875 L 8.5 -17.21875 L 15.171875 0 Z M 10.390625 -7.21875 L 8.390625 -12.625 C 8.335938 -12.769531 8.257812 -13 8.15625 -13.3125 C 8.050781 -13.632812 7.941406 -13.96875 7.828125 -14.3125 C 7.722656 -14.65625 7.632812 -14.9375 7.5625 -15.15625 C 7.488281 -14.832031 7.40625 -14.507812 7.3125 -14.1875 C 7.226562 -13.875 7.140625 -13.582031 7.046875 -13.3125 C 6.960938 -13.039062 6.890625 -12.8125 6.828125 -12.625 L 4.78125 -7.21875 Z M 10.390625 -7.21875 "/></g></g><g style="fill:#ffffff;fill-opacity:1;"><g transform="translate(1009.260288, 304.679038)"><path style="stroke:none" d="M 15.765625 0 L 13.453125 0 L 4.109375 -14.40625 L 4.015625 -14.40625 C 4.035156 -14.019531 4.0625 -13.582031 4.09375 -13.09375 C 4.125 -12.613281 4.148438 -12.097656 4.171875 -11.546875 C 4.191406 -10.992188 4.203125 -10.429688 4.203125 -9.859375 L 4.203125 0 L 2.34375 0 L 2.34375 -17.15625 L 4.640625 -17.15625 L 13.953125 -2.796875 L 14.03125 -2.796875 C 14.019531 -3.066406 14 -3.453125 13.96875 -3.953125 C 13.945312 -4.460938 13.925781 -5.007812 13.90625 -5.59375 C 13.882812 -6.175781 13.875 -6.71875 13.875 -7.21875 L 13.875 -17.15625 L 15.765625 -17.15625 Z M 15.765625 0 "/></g></g><g style="fill:#ffffff;fill-opacity:1;"><g transform="translate(1027.348269, 304.679038)"><path style="stroke:none" d="M 9.6875 -15.640625 C 8.738281 -15.640625 7.882812 -15.476562 7.125 -15.15625 C 6.375 -14.832031 5.734375 -14.363281 5.203125 -13.75 C 4.671875 -13.132812 4.265625 -12.390625 3.984375 -11.515625 C 3.703125 -10.648438 3.5625 -9.675781 3.5625 -8.59375 C 3.5625 -7.15625 3.785156 -5.90625 4.234375 -4.84375 C 4.691406 -3.78125 5.367188 -2.957031 6.265625 -2.375 C 7.160156 -1.800781 8.28125 -1.515625 9.625 -1.515625 C 10.382812 -1.515625 11.101562 -1.578125 11.78125 -1.703125 C 12.457031 -1.835938 13.117188 -2 13.765625 -2.1875 L 13.765625 -0.453125 C 13.140625 -0.222656 12.484375 -0.0507812 11.796875 0.0625 C 11.109375 0.175781 10.289062 0.234375 9.34375 0.234375 C 7.59375 0.234375 6.132812 -0.125 4.96875 -0.84375 C 3.800781 -1.570312 2.925781 -2.597656 2.34375 -3.921875 C 1.757812 -5.242188 1.46875 -6.800781 1.46875 -8.59375 C 1.46875 -9.894531 1.648438 -11.082031 2.015625 -12.15625 C 2.378906 -13.238281 2.910156 -14.171875 3.609375 -14.953125 C 4.304688 -15.734375 5.164062 -16.335938 6.1875 -16.765625 C 7.207031 -17.191406 8.378906 -17.40625 9.703125 -17.40625 C 10.566406 -17.40625 11.398438 -17.316406 12.203125 -17.140625 C 13.015625 -16.972656 13.742188 -16.726562 14.390625 -16.40625 L 13.59375 -14.71875 C 13.050781 -14.96875 12.453125 -15.179688 11.796875 -15.359375 C 11.140625 -15.546875 10.4375 -15.640625 9.6875 -15.640625 Z M 9.6875 -15.640625 "/></g></g><g style="fill:#ffffff;fill-opacity:1;"><g transform="translate(1042.480195, 304.679038)"><path style="stroke:none" d="M 2.34375 0 L 2.34375 -17.15625 L 4.34375 -17.15625 L 4.34375 0 Z M 2.34375 0 "/></g></g><g style="fill:#ffffff;fill-opacity:1;"><g transform="translate(1049.189865, 304.679038)"><path style="stroke:none" d="M 11.890625 0 L 2.34375 0 L 2.34375 -17.15625 L 11.890625 -17.15625 L 11.890625 -15.390625 L 4.34375 -15.390625 L 4.34375 -9.84375 L 11.46875 -9.84375 L 11.46875 -8.109375 L 4.34375 -8.109375 L 4.34375 -1.765625 L 11.890625 -1.765625 Z M 11.890625 0 "/></g></g><g style="fill:#ffffff;fill-opacity:1;"><g transform="translate(1062.538848, 304.679038)"><path style="stroke:none" d="M 6.984375 -17.15625 C 8.390625 -17.15625 9.550781 -16.976562 10.46875 -16.625 C 11.382812 -16.28125 12.070312 -15.75 12.53125 -15.03125 C 12.988281 -14.320312 13.21875 -13.421875 13.21875 -12.328125 C 13.21875 -11.410156 13.050781 -10.648438 12.71875 -10.046875 C 12.394531 -9.441406 11.960938 -8.953125 11.421875 -8.578125 C 10.890625 -8.203125 10.328125 -7.910156 9.734375 -7.703125 L 14.4375 0 L 12.109375 0 L 7.90625 -7.15625 L 4.34375 -7.15625 L 4.34375 0 L 2.34375 0 L 2.34375 -17.15625 Z M 6.859375 -15.4375 L 4.34375 -15.4375 L 4.34375 -8.84375 L 7.0625 -8.84375 C 8.46875 -8.84375 9.5 -9.128906 10.15625 -9.703125 C 10.8125 -10.273438 11.140625 -11.117188 11.140625 -12.234375 C 11.140625 -13.390625 10.789062 -14.210938 10.09375 -14.703125 C 9.394531 -15.191406 8.316406 -15.4375 6.859375 -15.4375 Z M 6.859375 -15.4375 "/></g></g><g style="fill:#ffffff;fill-opacity:1;"><g transform="translate(1077.365812, 304.679038)"><path style="stroke:none" d="M 17.21875 -8.59375 C 17.21875 -7.28125 17.050781 -6.082031 16.71875 -5 C 16.382812 -3.914062 15.882812 -2.984375 15.21875 -2.203125 C 14.5625 -1.421875 13.742188 -0.816406 12.765625 -0.390625 C 11.785156 0.0234375 10.648438 0.234375 9.359375 0.234375 C 8.035156 0.234375 6.878906 0.0234375 5.890625 -0.390625 C 4.898438 -0.816406 4.078125 -1.421875 3.421875 -2.203125 C 2.765625 -2.984375 2.273438 -3.914062 1.953125 -5 C 1.628906 -6.09375 1.46875 -7.300781 1.46875 -8.625 C 1.46875 -10.375 1.753906 -11.910156 2.328125 -13.234375 C 2.910156 -14.554688 3.789062 -15.582031 4.96875 -16.3125 C 6.144531 -17.050781 7.625 -17.421875 9.40625 -17.421875 C 11.09375 -17.421875 12.519531 -17.054688 13.6875 -16.328125 C 14.851562 -15.609375 15.734375 -14.585938 16.328125 -13.265625 C 16.921875 -11.941406 17.21875 -10.382812 17.21875 -8.59375 Z M 3.5625 -8.59375 C 3.5625 -7.144531 3.769531 -5.890625 4.1875 -4.828125 C 4.601562 -3.765625 5.238281 -2.941406 6.09375 -2.359375 C 6.945312 -1.773438 8.035156 -1.484375 9.359375 -1.484375 C 10.691406 -1.484375 11.78125 -1.773438 12.625 -2.359375 C 13.476562 -2.941406 14.109375 -3.765625 14.515625 -4.828125 C 14.921875 -5.890625 15.125 -7.144531 15.125 -8.59375 C 15.125 -10.8125 14.660156 -12.546875 13.734375 -13.796875 C 12.804688 -15.046875 11.363281 -15.671875 9.40625 -15.671875 C 8.070312 -15.671875 6.972656 -15.382812 6.109375 -14.8125 C 5.253906 -14.238281 4.613281 -13.425781 4.1875 -12.375 C 3.769531 -11.320312 3.5625 -10.0625 3.5625 -8.59375 Z M 3.5625 -8.59375 "/></g></g></g></svg>