<svg xmlns="http://www.w3.org/2000/svg" xmlns:xlink="http://www.w3.org/1999/xlink" width="500" zoomAndPan="magnify" viewBox="0 0 375 374.999991" height="500" preserveAspectRatio="xMidYMid meet" version="1.2"><defs><clipPath id="94f535b321"><path d="M 102.449219 8.386719 L 263 8.386719 L 263 160.515625 L 102.449219 160.515625 Z M 102.449219 8.386719 "/></clipPath><clipPath id="f1d2953696"><path d="M 182.707031 8.386719 C 138.382812 8.386719 102.449219 42.441406 102.449219 84.453125 C 102.449219 126.460938 138.382812 160.515625 182.707031 160.515625 C 227.03125 160.515625 262.964844 126.460938 262.964844 84.453125 C 262.964844 42.441406 227.03125 8.386719 182.707031 8.386719 Z M 182.707031 8.386719 "/></clipPath><clipPath id="30b9bc26bd"><path d="M 117.074219 74 L 263 74 L 263 137.566406 L 117.074219 137.566406 Z M 117.074219 74 "/></clipPath><clipPath id="4cef626d9a"><path d="M 211 20.566406 L 229 20.566406 L 229 102 L 211 102 Z M 211 20.566406 "/></clipPath></defs><g id="303d85b827"><rect x="0" width="375" y="0" height="374.999991" style="fill:#ffffff;fill-opacity:1;stroke:none;"/><rect x="0" width="375" y="0" height="374.999991" style="fill:#082750;fill-opacity:1;stroke:none;"/><g style="fill:#ffffff;fill-opacity:1;"><g transform="translate(8.932697, 254.677262)"><path style="stroke:none" d="M 32.40625 0.921875 C 41.769531 1.023438 48.96875 -0.875 54 -4.78125 C 59.039062 -8.6875 61.5625 -14.34375 61.5625 -21.75 C 61.5625 -25.875 60.609375 -29.347656 58.703125 -32.171875 C 56.804688 -35.003906 54.363281 -37.394531 51.375 -39.34375 C 48.394531 -41.300781 45.207031 -42.972656 41.8125 -44.359375 C 38.414062 -45.753906 35.226562 -46.960938 32.25 -47.984375 C 29.269531 -49.015625 26.828125 -50.019531 24.921875 -51 C 23.015625 -51.976562 22.0625 -53.082031 22.0625 -54.3125 C 22.0625 -57.8125 25.300781 -59.5625 31.78125 -59.5625 C 34.769531 -59.5625 37.238281 -58.710938 39.1875 -57.015625 C 41.144531 -55.316406 42.429688 -52.875 43.046875 -49.6875 L 60.03125 -54.78125 C 58.382812 -62.394531 55.140625 -68.207031 50.296875 -72.21875 C 45.460938 -76.226562 39.289062 -78.234375 31.78125 -78.234375 C 22.425781 -78.234375 15.253906 -76.273438 10.265625 -72.359375 C 5.273438 -68.453125 2.78125 -62.847656 2.78125 -55.546875 C 2.78125 -51.535156 3.726562 -48.113281 5.625 -45.28125 C 7.53125 -42.457031 9.972656 -40.09375 12.953125 -38.1875 C 15.941406 -36.289062 19.109375 -34.695312 22.453125 -33.40625 C 25.796875 -32.125 28.957031 -30.96875 31.9375 -29.9375 C 34.925781 -28.90625 37.367188 -27.847656 39.265625 -26.765625 C 41.171875 -25.691406 42.125 -24.429688 42.125 -22.984375 C 42.125 -19.597656 38.882812 -17.90625 32.40625 -17.90625 C 29.519531 -17.90625 27.125 -18.75 25.21875 -20.4375 C 23.320312 -22.132812 21.960938 -24.476562 21.140625 -27.46875 L 4.328125 -22.375 C 5.972656 -14.863281 9.210938 -9.078125 14.046875 -5.015625 C 18.878906 -0.953125 25 1.023438 32.40625 0.921875 Z M 32.40625 0.921875 "/></g></g><g style="fill:#ffffff;fill-opacity:1;"><g transform="translate(73.585425, 254.677262)"><path style="stroke:none" d="M 14.65625 -65.734375 C 11.46875 -65.734375 8.945312 -66.582031 7.09375 -68.28125 C 5.25 -69.976562 4.328125 -72.367188 4.328125 -75.453125 C 4.328125 -78.441406 5.25 -80.785156 7.09375 -82.484375 C 8.945312 -84.179688 11.46875 -85.03125 14.65625 -85.03125 C 17.945312 -85.03125 20.492188 -84.179688 22.296875 -82.484375 C 24.097656 -80.785156 25 -78.441406 25 -75.453125 C 25 -68.972656 21.550781 -65.734375 14.65625 -65.734375 Z M 25 -61.71875 L 25 0 L 4.328125 0 L 4.328125 -61.71875 Z M 25 -61.71875 "/></g></g><g style="fill:#ffffff;fill-opacity:1;"><g transform="translate(102.902898, 254.677262)"><path style="stroke:none" d="M 24.84375 -58.484375 L 24.84375 -47.6875 L 52.3125 -47.6875 L 52.3125 -29.46875 L 24.84375 -29.46875 L 24.84375 0 L 4.328125 0 L 4.328125 -77.15625 L 52.3125 -77.15625 L 52.3125 -58.484375 Z M 24.84375 -58.484375 "/></g></g><g style="fill:#ffffff;fill-opacity:1;"><g transform="translate(159.5319, 254.677262)"><path style="stroke:none" d="M 52.3125 -20.515625 L 52.3125 0 L 4.328125 0 L 4.328125 -77.15625 L 24.84375 -77.15625 L 24.84375 -20.515625 Z M 52.3125 -20.515625 "/></g></g><g style="fill:#ffffff;fill-opacity:1;"><g transform="translate(215.543699, 254.677262)"><path style="stroke:none" d="M 33.015625 1.078125 C 23.660156 1.078125 16.410156 -2.363281 11.265625 -9.25 C 6.117188 -16.144531 3.546875 -25.921875 3.546875 -38.578125 C 3.546875 -51.234375 6.117188 -61.003906 11.265625 -67.890625 C 16.410156 -74.785156 23.660156 -78.234375 33.015625 -78.234375 C 42.484375 -78.234375 49.789062 -74.785156 54.9375 -67.890625 C 60.082031 -61.003906 62.65625 -51.234375 62.65625 -38.578125 C 62.65625 -25.921875 60.082031 -16.144531 54.9375 -9.25 C 49.789062 -2.363281 42.484375 1.078125 33.015625 1.078125 Z M 33.171875 -19.4375 C 36.160156 -19.4375 38.453125 -21.082031 40.046875 -24.375 C 41.640625 -27.664062 42.488281 -32.398438 42.59375 -38.578125 C 42.488281 -44.742188 41.640625 -49.472656 40.046875 -52.765625 C 38.453125 -56.066406 36.160156 -57.71875 33.171875 -57.71875 C 30.085938 -57.71875 27.722656 -56.066406 26.078125 -52.765625 C 24.429688 -49.472656 23.609375 -44.742188 23.609375 -38.578125 C 23.609375 -32.398438 24.429688 -27.664062 26.078125 -24.375 C 27.722656 -21.082031 30.085938 -19.4375 33.171875 -19.4375 Z M 33.171875 -19.4375 "/></g></g><g style="fill:#ffffff;fill-opacity:1;"><g transform="translate(281.739458, 254.677262)"><path style="stroke:none" d="M 88.109375 -77.15625 L 69.59375 0 L 52.46875 0 L 44.75 -37.03125 L 36.875 0 L 19.90625 0 L 1.390625 -77.15625 L 20.21875 -77.15625 L 28.703125 -31.640625 L 37.1875 -77.15625 L 52.15625 -77.15625 L 60.796875 -31.640625 L 69.28125 -77.15625 Z M 88.109375 -77.15625 "/></g></g><g style="fill:#ffffff;fill-opacity:1;"><g transform="translate(56.978212, 300.221699)"><path style="stroke:none" d="M 7.015625 -2.671875 C 7.015625 -2.078125 6.867188 -1.566406 6.578125 -1.140625 C 6.285156 -0.722656 5.875 -0.40625 5.34375 -0.1875 C 4.8125 0.03125 4.1875 0.140625 3.46875 0.140625 C 3.09375 0.140625 2.734375 0.117188 2.390625 0.078125 C 2.054688 0.046875 1.75 0 1.46875 -0.0625 C 1.1875 -0.132812 0.9375 -0.222656 0.71875 -0.328125 L 0.71875 -1.453125 C 1.0625 -1.304688 1.476562 -1.171875 1.96875 -1.046875 C 2.46875 -0.929688 2.984375 -0.875 3.515625 -0.875 C 4.023438 -0.875 4.453125 -0.941406 4.796875 -1.078125 C 5.140625 -1.210938 5.398438 -1.40625 5.578125 -1.65625 C 5.765625 -1.90625 5.859375 -2.207031 5.859375 -2.5625 C 5.859375 -2.90625 5.78125 -3.191406 5.625 -3.421875 C 5.476562 -3.660156 5.226562 -3.875 4.875 -4.0625 C 4.53125 -4.25 4.054688 -4.453125 3.453125 -4.671875 C 3.023438 -4.816406 2.648438 -4.976562 2.328125 -5.15625 C 2.003906 -5.34375 1.734375 -5.550781 1.515625 -5.78125 C 1.296875 -6.007812 1.128906 -6.269531 1.015625 -6.5625 C 0.898438 -6.863281 0.84375 -7.210938 0.84375 -7.609375 C 0.84375 -8.140625 0.976562 -8.59375 1.25 -8.96875 C 1.53125 -9.351562 1.910156 -9.644531 2.390625 -9.84375 C 2.867188 -10.050781 3.421875 -10.15625 4.046875 -10.15625 C 4.578125 -10.15625 5.070312 -10.101562 5.53125 -10 C 5.988281 -9.90625 6.40625 -9.773438 6.78125 -9.609375 L 6.421875 -8.609375 C 6.054688 -8.753906 5.671875 -8.875 5.265625 -8.96875 C 4.867188 -9.070312 4.453125 -9.125 4.015625 -9.125 C 3.585938 -9.125 3.226562 -9.0625 2.9375 -8.9375 C 2.644531 -8.8125 2.421875 -8.632812 2.265625 -8.40625 C 2.109375 -8.1875 2.03125 -7.914062 2.03125 -7.59375 C 2.03125 -7.25 2.101562 -6.957031 2.25 -6.71875 C 2.394531 -6.488281 2.628906 -6.28125 2.953125 -6.09375 C 3.285156 -5.914062 3.722656 -5.726562 4.265625 -5.53125 C 4.847656 -5.320312 5.34375 -5.097656 5.75 -4.859375 C 6.164062 -4.617188 6.476562 -4.320312 6.6875 -3.96875 C 6.90625 -3.625 7.015625 -3.191406 7.015625 -2.671875 Z M 7.015625 -2.671875 "/></g></g><g style="fill:#ffffff;fill-opacity:1;"><g transform="translate(64.669968, 300.221699)"><path style="stroke:none" d="M 1.375 0 L 1.375 -10.015625 L 2.53125 -10.015625 L 2.53125 0 Z M 1.375 0 "/></g></g><g style="fill:#ffffff;fill-opacity:1;"><g transform="translate(68.587762, 300.221699)"><path style="stroke:none" d="M 7.015625 -2.671875 C 7.015625 -2.078125 6.867188 -1.566406 6.578125 -1.140625 C 6.285156 -0.722656 5.875 -0.40625 5.34375 -0.1875 C 4.8125 0.03125 4.1875 0.140625 3.46875 0.140625 C 3.09375 0.140625 2.734375 0.117188 2.390625 0.078125 C 2.054688 0.046875 1.75 0 1.46875 -0.0625 C 1.1875 -0.132812 0.9375 -0.222656 0.71875 -0.328125 L 0.71875 -1.453125 C 1.0625 -1.304688 1.476562 -1.171875 1.96875 -1.046875 C 2.46875 -0.929688 2.984375 -0.875 3.515625 -0.875 C 4.023438 -0.875 4.453125 -0.941406 4.796875 -1.078125 C 5.140625 -1.210938 5.398438 -1.40625 5.578125 -1.65625 C 5.765625 -1.90625 5.859375 -2.207031 5.859375 -2.5625 C 5.859375 -2.90625 5.78125 -3.191406 5.625 -3.421875 C 5.476562 -3.660156 5.226562 -3.875 4.875 -4.0625 C 4.53125 -4.25 4.054688 -4.453125 3.453125 -4.671875 C 3.023438 -4.816406 2.648438 -4.976562 2.328125 -5.15625 C 2.003906 -5.34375 1.734375 -5.550781 1.515625 -5.78125 C 1.296875 -6.007812 1.128906 -6.269531 1.015625 -6.5625 C 0.898438 -6.863281 0.84375 -7.210938 0.84375 -7.609375 C 0.84375 -8.140625 0.976562 -8.59375 1.25 -8.96875 C 1.53125 -9.351562 1.910156 -9.644531 2.390625 -9.84375 C 2.867188 -10.050781 3.421875 -10.15625 4.046875 -10.15625 C 4.578125 -10.15625 5.070312 -10.101562 5.53125 -10 C 5.988281 -9.90625 6.40625 -9.773438 6.78125 -9.609375 L 6.421875 -8.609375 C 6.054688 -8.753906 5.671875 -8.875 5.265625 -8.96875 C 4.867188 -9.070312 4.453125 -9.125 4.015625 -9.125 C 3.585938 -9.125 3.226562 -9.0625 2.9375 -8.9375 C 2.644531 -8.8125 2.421875 -8.632812 2.265625 -8.40625 C 2.109375 -8.1875 2.03125 -7.914062 2.03125 -7.59375 C 2.03125 -7.25 2.101562 -6.957031 2.25 -6.71875 C 2.394531 -6.488281 2.628906 -6.28125 2.953125 -6.09375 C 3.285156 -5.914062 3.722656 -5.726562 4.265625 -5.53125 C 4.847656 -5.320312 5.34375 -5.097656 5.75 -4.859375 C 6.164062 -4.617188 6.476562 -4.320312 6.6875 -3.96875 C 6.90625 -3.625 7.015625 -3.191406 7.015625 -2.671875 Z M 7.015625 -2.671875 "/></g></g><g style="fill:#ffffff;fill-opacity:1;"><g transform="translate(76.279518, 300.221699)"><path style="stroke:none" d="M 4.453125 0 L 3.28125 0 L 3.28125 -8.984375 L 0.125 -8.984375 L 0.125 -10.015625 L 7.578125 -10.015625 L 7.578125 -8.984375 L 4.453125 -8.984375 Z M 4.453125 0 "/></g></g><g style="fill:#ffffff;fill-opacity:1;"><g transform="translate(84.005516, 300.221699)"><path style="stroke:none" d="M 6.953125 0 L 1.375 0 L 1.375 -10.015625 L 6.953125 -10.015625 L 6.953125 -8.984375 L 2.53125 -8.984375 L 2.53125 -5.75 L 6.6875 -5.75 L 6.6875 -4.734375 L 2.53125 -4.734375 L 2.53125 -1.03125 L 6.953125 -1.03125 Z M 6.953125 0 "/></g></g><g style="fill:#ffffff;fill-opacity:1;"><g transform="translate(91.800006, 300.221699)"><path style="stroke:none" d="M 5.78125 0 L 2.40625 -8.859375 L 2.359375 -8.859375 C 2.378906 -8.671875 2.394531 -8.441406 2.40625 -8.171875 C 2.414062 -7.910156 2.425781 -7.617188 2.4375 -7.296875 C 2.445312 -6.984375 2.453125 -6.660156 2.453125 -6.328125 L 2.453125 0 L 1.375 0 L 1.375 -10.015625 L 3.09375 -10.015625 L 6.265625 -1.6875 L 6.3125 -1.6875 L 9.53125 -10.015625 L 11.25 -10.015625 L 11.25 0 L 10.09375 0 L 10.09375 -6.40625 C 10.09375 -6.707031 10.097656 -7.003906 10.109375 -7.296875 C 10.117188 -7.597656 10.128906 -7.882812 10.140625 -8.15625 C 10.160156 -8.425781 10.175781 -8.660156 10.1875 -8.859375 L 10.140625 -8.859375 L 6.734375 0 Z M 5.78125 0 "/></g></g><g style="fill:#ffffff;fill-opacity:1;"><g transform="translate(104.416396, 300.221699)"><path style="stroke:none" d="M 7.65625 0 L 6.421875 -3.171875 L 2.40625 -3.171875 L 1.171875 0 L 0 0 L 3.921875 -10.0625 L 4.96875 -10.0625 L 8.859375 0 Z M 6.0625 -4.21875 L 4.90625 -7.375 C 4.875 -7.457031 4.828125 -7.59375 4.765625 -7.78125 C 4.703125 -7.96875 4.640625 -8.160156 4.578125 -8.359375 C 4.515625 -8.554688 4.460938 -8.71875 4.421875 -8.84375 C 4.367188 -8.65625 4.316406 -8.46875 4.265625 -8.28125 C 4.210938 -8.101562 4.160156 -7.929688 4.109375 -7.765625 C 4.066406 -7.609375 4.023438 -7.476562 3.984375 -7.375 L 2.796875 -4.21875 Z M 6.0625 -4.21875 "/></g></g><g style="fill:#ffffff;fill-opacity:1;"><g transform="translate(113.28623, 300.221699)"><path style="stroke:none" d=""/></g></g><g style="fill:#ffffff;fill-opacity:1;"><g transform="translate(116.930051, 300.221699)"><path style="stroke:none" d="M 9.328125 -5.109375 C 9.328125 -3.972656 9.117188 -3.023438 8.703125 -2.265625 C 8.296875 -1.515625 7.703125 -0.945312 6.921875 -0.5625 C 6.140625 -0.1875 5.195312 0 4.09375 0 L 1.375 0 L 1.375 -10.015625 L 4.390625 -10.015625 C 5.410156 -10.015625 6.285156 -9.828125 7.015625 -9.453125 C 7.753906 -9.085938 8.320312 -8.539062 8.71875 -7.8125 C 9.125 -7.082031 9.328125 -6.179688 9.328125 -5.109375 Z M 8.09375 -5.0625 C 8.09375 -5.957031 7.941406 -6.695312 7.640625 -7.28125 C 7.347656 -7.875 6.910156 -8.3125 6.328125 -8.59375 C 5.753906 -8.875 5.050781 -9.015625 4.21875 -9.015625 L 2.53125 -9.015625 L 2.53125 -1 L 3.953125 -1 C 5.328125 -1 6.359375 -1.335938 7.046875 -2.015625 C 7.742188 -2.703125 8.09375 -3.71875 8.09375 -5.0625 Z M 8.09375 -5.0625 "/></g></g><g style="fill:#ffffff;fill-opacity:1;"><g transform="translate(127.108094, 300.221699)"><path style="stroke:none" d="M 6.953125 0 L 1.375 0 L 1.375 -10.015625 L 6.953125 -10.015625 L 6.953125 -8.984375 L 2.53125 -8.984375 L 2.53125 -5.75 L 6.6875 -5.75 L 6.6875 -4.734375 L 2.53125 -4.734375 L 2.53125 -1.03125 L 6.953125 -1.03125 Z M 6.953125 0 "/></g></g><g style="fill:#ffffff;fill-opacity:1;"><g transform="translate(134.902584, 300.221699)"><path style="stroke:none" d=""/></g></g><g style="fill:#ffffff;fill-opacity:1;"><g transform="translate(138.546406, 300.221699)"><path style="stroke:none" d="M 1.375 0 L 1.375 -10.015625 L 2.53125 -10.015625 L 2.53125 0 Z M 1.375 0 "/></g></g><g style="fill:#ffffff;fill-opacity:1;"><g transform="translate(142.464199, 300.221699)"><path style="stroke:none" d="M 9.203125 0 L 7.859375 0 L 2.390625 -8.40625 L 2.34375 -8.40625 C 2.351562 -8.1875 2.367188 -7.929688 2.390625 -7.640625 C 2.410156 -7.359375 2.425781 -7.054688 2.4375 -6.734375 C 2.445312 -6.410156 2.453125 -6.082031 2.453125 -5.75 L 2.453125 0 L 1.375 0 L 1.375 -10.015625 L 2.703125 -10.015625 L 8.140625 -1.625 L 8.1875 -1.625 C 8.1875 -1.789062 8.175781 -2.019531 8.15625 -2.3125 C 8.144531 -2.601562 8.132812 -2.921875 8.125 -3.265625 C 8.113281 -3.609375 8.109375 -3.925781 8.109375 -4.21875 L 8.109375 -10.015625 L 9.203125 -10.015625 Z M 9.203125 0 "/></g></g><g style="fill:#ffffff;fill-opacity:1;"><g transform="translate(153.025802, 300.221699)"><path style="stroke:none" d="M 2.53125 0 L 1.375 0 L 1.375 -10.015625 L 6.953125 -10.015625 L 6.953125 -8.984375 L 2.53125 -8.984375 L 2.53125 -5.3125 L 6.6875 -5.3125 L 6.6875 -4.296875 L 2.53125 -4.296875 Z M 2.53125 0 "/></g></g><g style="fill:#ffffff;fill-opacity:1;"><g transform="translate(160.265506, 300.221699)"><path style="stroke:none" d="M 10.0625 -5.015625 C 10.0625 -4.242188 9.960938 -3.539062 9.765625 -2.90625 C 9.566406 -2.28125 9.273438 -1.738281 8.890625 -1.28125 C 8.503906 -0.832031 8.023438 -0.484375 7.453125 -0.234375 C 6.878906 0.015625 6.21875 0.140625 5.46875 0.140625 C 4.6875 0.140625 4.003906 0.015625 3.421875 -0.234375 C 2.847656 -0.484375 2.367188 -0.832031 1.984375 -1.28125 C 1.609375 -1.738281 1.328125 -2.285156 1.140625 -2.921875 C 0.953125 -3.554688 0.859375 -4.257812 0.859375 -5.03125 C 0.859375 -6.050781 1.023438 -6.945312 1.359375 -7.71875 C 1.703125 -8.5 2.21875 -9.101562 2.90625 -9.53125 C 3.59375 -9.957031 4.453125 -10.171875 5.484375 -10.171875 C 6.472656 -10.171875 7.304688 -9.957031 7.984375 -9.53125 C 8.671875 -9.113281 9.1875 -8.519531 9.53125 -7.75 C 9.882812 -6.976562 10.0625 -6.066406 10.0625 -5.015625 Z M 2.078125 -5.015625 C 2.078125 -4.171875 2.195312 -3.4375 2.4375 -2.8125 C 2.6875 -2.195312 3.0625 -1.71875 3.5625 -1.375 C 4.0625 -1.039062 4.695312 -0.875 5.46875 -0.875 C 6.238281 -0.875 6.875 -1.039062 7.375 -1.375 C 7.875 -1.71875 8.238281 -2.195312 8.46875 -2.8125 C 8.707031 -3.4375 8.828125 -4.171875 8.828125 -5.015625 C 8.828125 -6.304688 8.554688 -7.316406 8.015625 -8.046875 C 7.472656 -8.773438 6.628906 -9.140625 5.484375 -9.140625 C 4.710938 -9.140625 4.070312 -8.972656 3.5625 -8.640625 C 3.0625 -8.304688 2.6875 -7.832031 2.4375 -7.21875 C 2.195312 -6.601562 2.078125 -5.867188 2.078125 -5.015625 Z M 2.078125 -5.015625 "/></g></g><g style="fill:#ffffff;fill-opacity:1;"><g transform="translate(171.176428, 300.221699)"><path style="stroke:none" d="M 4.078125 -10.015625 C 4.898438 -10.015625 5.578125 -9.910156 6.109375 -9.703125 C 6.648438 -9.503906 7.050781 -9.195312 7.3125 -8.78125 C 7.582031 -8.363281 7.71875 -7.832031 7.71875 -7.1875 C 7.71875 -6.664062 7.617188 -6.226562 7.421875 -5.875 C 7.234375 -5.519531 6.984375 -5.226562 6.671875 -5 C 6.359375 -4.78125 6.023438 -4.613281 5.671875 -4.5 L 8.421875 0 L 7.078125 0 L 4.625 -4.171875 L 2.53125 -4.171875 L 2.53125 0 L 1.375 0 L 1.375 -10.015625 Z M 4.015625 -9.015625 L 2.53125 -9.015625 L 2.53125 -5.171875 L 4.125 -5.171875 C 4.9375 -5.171875 5.535156 -5.335938 5.921875 -5.671875 C 6.316406 -6.003906 6.515625 -6.492188 6.515625 -7.140625 C 6.515625 -7.816406 6.304688 -8.296875 5.890625 -8.578125 C 5.484375 -8.867188 4.859375 -9.015625 4.015625 -9.015625 Z M 4.015625 -9.015625 "/></g></g><g style="fill:#ffffff;fill-opacity:1;"><g transform="translate(179.833928, 300.221699)"><path style="stroke:none" d="M 5.78125 0 L 2.40625 -8.859375 L 2.359375 -8.859375 C 2.378906 -8.671875 2.394531 -8.441406 2.40625 -8.171875 C 2.414062 -7.910156 2.425781 -7.617188 2.4375 -7.296875 C 2.445312 -6.984375 2.453125 -6.660156 2.453125 -6.328125 L 2.453125 0 L 1.375 0 L 1.375 -10.015625 L 3.09375 -10.015625 L 6.265625 -1.6875 L 6.3125 -1.6875 L 9.53125 -10.015625 L 11.25 -10.015625 L 11.25 0 L 10.09375 0 L 10.09375 -6.40625 C 10.09375 -6.707031 10.097656 -7.003906 10.109375 -7.296875 C 10.117188 -7.597656 10.128906 -7.882812 10.140625 -8.15625 C 10.160156 -8.425781 10.175781 -8.660156 10.1875 -8.859375 L 10.140625 -8.859375 L 6.734375 0 Z M 5.78125 0 "/></g></g><g style="fill:#ffffff;fill-opacity:1;"><g transform="translate(192.450318, 300.221699)"><path style="stroke:none" d="M 7.65625 0 L 6.421875 -3.171875 L 2.40625 -3.171875 L 1.171875 0 L 0 0 L 3.921875 -10.0625 L 4.96875 -10.0625 L 8.859375 0 Z M 6.0625 -4.21875 L 4.90625 -7.375 C 4.875 -7.457031 4.828125 -7.59375 4.765625 -7.78125 C 4.703125 -7.96875 4.640625 -8.160156 4.578125 -8.359375 C 4.515625 -8.554688 4.460938 -8.71875 4.421875 -8.84375 C 4.367188 -8.65625 4.316406 -8.46875 4.265625 -8.28125 C 4.210938 -8.101562 4.160156 -7.929688 4.109375 -7.765625 C 4.066406 -7.609375 4.023438 -7.476562 3.984375 -7.375 L 2.796875 -4.21875 Z M 6.0625 -4.21875 "/></g></g><g style="fill:#ffffff;fill-opacity:1;"><g transform="translate(201.320152, 300.221699)"><path style="stroke:none" d="M 5.65625 -9.125 C 5.101562 -9.125 4.601562 -9.03125 4.15625 -8.84375 C 3.71875 -8.65625 3.34375 -8.378906 3.03125 -8.015625 C 2.726562 -7.660156 2.492188 -7.226562 2.328125 -6.71875 C 2.160156 -6.21875 2.078125 -5.648438 2.078125 -5.015625 C 2.078125 -4.171875 2.207031 -3.4375 2.46875 -2.8125 C 2.738281 -2.195312 3.132812 -1.722656 3.65625 -1.390625 C 4.175781 -1.054688 4.832031 -0.890625 5.625 -0.890625 C 6.070312 -0.890625 6.488281 -0.925781 6.875 -1 C 7.269531 -1.070312 7.65625 -1.164062 8.03125 -1.28125 L 8.03125 -0.265625 C 7.664062 -0.128906 7.28125 -0.03125 6.875 0.03125 C 6.476562 0.101562 6.003906 0.140625 5.453125 0.140625 C 4.429688 0.140625 3.578125 -0.0664062 2.890625 -0.484375 C 2.210938 -0.910156 1.703125 -1.507812 1.359375 -2.28125 C 1.023438 -3.0625 0.859375 -3.972656 0.859375 -5.015625 C 0.859375 -5.773438 0.960938 -6.46875 1.171875 -7.09375 C 1.390625 -7.726562 1.703125 -8.269531 2.109375 -8.71875 C 2.515625 -9.175781 3.015625 -9.53125 3.609375 -9.78125 C 4.210938 -10.03125 4.898438 -10.15625 5.671875 -10.15625 C 6.171875 -10.15625 6.65625 -10.101562 7.125 -10 C 7.601562 -9.90625 8.03125 -9.765625 8.40625 -9.578125 L 7.9375 -8.59375 C 7.625 -8.738281 7.273438 -8.863281 6.890625 -8.96875 C 6.503906 -9.070312 6.09375 -9.125 5.65625 -9.125 Z M 5.65625 -9.125 "/></g></g><g style="fill:#ffffff;fill-opacity:1;"><g transform="translate(210.155735, 300.221699)"><path style="stroke:none" d="M 1.375 0 L 1.375 -10.015625 L 2.53125 -10.015625 L 2.53125 0 Z M 1.375 0 "/></g></g><g style="fill:#ffffff;fill-opacity:1;"><g transform="translate(214.073528, 300.221699)"><path style="stroke:none" d="M 10.0625 -5.015625 C 10.0625 -4.242188 9.960938 -3.539062 9.765625 -2.90625 C 9.566406 -2.28125 9.273438 -1.738281 8.890625 -1.28125 C 8.503906 -0.832031 8.023438 -0.484375 7.453125 -0.234375 C 6.878906 0.015625 6.21875 0.140625 5.46875 0.140625 C 4.6875 0.140625 4.003906 0.015625 3.421875 -0.234375 C 2.847656 -0.484375 2.367188 -0.832031 1.984375 -1.28125 C 1.609375 -1.738281 1.328125 -2.285156 1.140625 -2.921875 C 0.953125 -3.554688 0.859375 -4.257812 0.859375 -5.03125 C 0.859375 -6.050781 1.023438 -6.945312 1.359375 -7.71875 C 1.703125 -8.5 2.21875 -9.101562 2.90625 -9.53125 C 3.59375 -9.957031 4.453125 -10.171875 5.484375 -10.171875 C 6.472656 -10.171875 7.304688 -9.957031 7.984375 -9.53125 C 8.671875 -9.113281 9.1875 -8.519531 9.53125 -7.75 C 9.882812 -6.976562 10.0625 -6.066406 10.0625 -5.015625 Z M 2.078125 -5.015625 C 2.078125 -4.171875 2.195312 -3.4375 2.4375 -2.8125 C 2.6875 -2.195312 3.0625 -1.71875 3.5625 -1.375 C 4.0625 -1.039062 4.695312 -0.875 5.46875 -0.875 C 6.238281 -0.875 6.875 -1.039062 7.375 -1.375 C 7.875 -1.71875 8.238281 -2.195312 8.46875 -2.8125 C 8.707031 -3.4375 8.828125 -4.171875 8.828125 -5.015625 C 8.828125 -6.304688 8.554688 -7.316406 8.015625 -8.046875 C 7.472656 -8.773438 6.628906 -9.140625 5.484375 -9.140625 C 4.710938 -9.140625 4.070312 -8.972656 3.5625 -8.640625 C 3.0625 -8.304688 2.6875 -7.832031 2.4375 -7.21875 C 2.195312 -6.601562 2.078125 -5.867188 2.078125 -5.015625 Z M 2.078125 -5.015625 "/></g></g><g style="fill:#ffffff;fill-opacity:1;"><g transform="translate(224.98445, 300.221699)"><path style="stroke:none" d="M 9.203125 0 L 7.859375 0 L 2.390625 -8.40625 L 2.34375 -8.40625 C 2.351562 -8.1875 2.367188 -7.929688 2.390625 -7.640625 C 2.410156 -7.359375 2.425781 -7.054688 2.4375 -6.734375 C 2.445312 -6.410156 2.453125 -6.082031 2.453125 -5.75 L 2.453125 0 L 1.375 0 L 1.375 -10.015625 L 2.703125 -10.015625 L 8.140625 -1.625 L 8.1875 -1.625 C 8.1875 -1.789062 8.175781 -2.019531 8.15625 -2.3125 C 8.144531 -2.601562 8.132812 -2.921875 8.125 -3.265625 C 8.113281 -3.609375 8.109375 -3.925781 8.109375 -4.21875 L 8.109375 -10.015625 L 9.203125 -10.015625 Z M 9.203125 0 "/></g></g><g style="fill:#ffffff;fill-opacity:1;"><g transform="translate(235.546053, 300.221699)"><path style="stroke:none" d=""/></g></g><g style="fill:#ffffff;fill-opacity:1;"><g transform="translate(239.189874, 300.221699)"><path style="stroke:none" d="M 1.375 0 L 1.375 -10.015625 L 2.53125 -10.015625 L 2.53125 0 Z M 1.375 0 "/></g></g><g style="fill:#ffffff;fill-opacity:1;"><g transform="translate(243.107667, 300.221699)"><path style="stroke:none" d="M 9.203125 0 L 7.859375 0 L 2.390625 -8.40625 L 2.34375 -8.40625 C 2.351562 -8.1875 2.367188 -7.929688 2.390625 -7.640625 C 2.410156 -7.359375 2.425781 -7.054688 2.4375 -6.734375 C 2.445312 -6.410156 2.453125 -6.082031 2.453125 -5.75 L 2.453125 0 L 1.375 0 L 1.375 -10.015625 L 2.703125 -10.015625 L 8.140625 -1.625 L 8.1875 -1.625 C 8.1875 -1.789062 8.175781 -2.019531 8.15625 -2.3125 C 8.144531 -2.601562 8.132812 -2.921875 8.125 -3.265625 C 8.113281 -3.609375 8.109375 -3.925781 8.109375 -4.21875 L 8.109375 -10.015625 L 9.203125 -10.015625 Z M 9.203125 0 "/></g></g><g style="fill:#ffffff;fill-opacity:1;"><g transform="translate(253.66927, 300.221699)"><path style="stroke:none" d="M 4.453125 0 L 3.28125 0 L 3.28125 -8.984375 L 0.125 -8.984375 L 0.125 -10.015625 L 7.578125 -10.015625 L 7.578125 -8.984375 L 4.453125 -8.984375 Z M 4.453125 0 "/></g></g><g style="fill:#ffffff;fill-opacity:1;"><g transform="translate(261.395268, 300.221699)"><path style="stroke:none" d="M 6.953125 0 L 1.375 0 L 1.375 -10.015625 L 6.953125 -10.015625 L 6.953125 -8.984375 L 2.53125 -8.984375 L 2.53125 -5.75 L 6.6875 -5.75 L 6.6875 -4.734375 L 2.53125 -4.734375 L 2.53125 -1.03125 L 6.953125 -1.03125 Z M 6.953125 0 "/></g></g><g style="fill:#ffffff;fill-opacity:1;"><g transform="translate(269.189747, 300.221699)"><path style="stroke:none" d="M 5.65625 -5.25 L 9.15625 -5.25 L 9.15625 -0.390625 C 8.625 -0.210938 8.082031 -0.0820312 7.53125 0 C 6.976562 0.09375 6.359375 0.140625 5.671875 0.140625 C 4.628906 0.140625 3.75 -0.0664062 3.03125 -0.484375 C 2.320312 -0.898438 1.78125 -1.492188 1.40625 -2.265625 C 1.039062 -3.035156 0.859375 -3.953125 0.859375 -5.015625 C 0.859375 -6.046875 1.0625 -6.945312 1.46875 -7.71875 C 1.875 -8.488281 2.460938 -9.085938 3.234375 -9.515625 C 4.015625 -9.941406 4.945312 -10.15625 6.03125 -10.15625 C 6.59375 -10.15625 7.125 -10.101562 7.625 -10 C 8.125 -9.90625 8.585938 -9.765625 9.015625 -9.578125 L 8.578125 -8.5625 C 8.203125 -8.71875 7.789062 -8.851562 7.34375 -8.96875 C 6.90625 -9.082031 6.445312 -9.140625 5.96875 -9.140625 C 5.144531 -9.140625 4.441406 -8.96875 3.859375 -8.625 C 3.285156 -8.289062 2.84375 -7.816406 2.53125 -7.203125 C 2.21875 -6.585938 2.0625 -5.859375 2.0625 -5.015625 C 2.0625 -4.171875 2.195312 -3.4375 2.46875 -2.8125 C 2.738281 -2.195312 3.160156 -1.71875 3.734375 -1.375 C 4.304688 -1.039062 5.039062 -0.875 5.9375 -0.875 C 6.394531 -0.875 6.785156 -0.898438 7.109375 -0.953125 C 7.429688 -1.003906 7.722656 -1.066406 7.984375 -1.140625 L 7.984375 -4.203125 L 5.65625 -4.203125 Z M 5.65625 -5.25 "/></g></g><g style="fill:#ffffff;fill-opacity:1;"><g transform="translate(279.388354, 300.221699)"><path style="stroke:none" d="M 4.078125 -10.015625 C 4.898438 -10.015625 5.578125 -9.910156 6.109375 -9.703125 C 6.648438 -9.503906 7.050781 -9.195312 7.3125 -8.78125 C 7.582031 -8.363281 7.71875 -7.832031 7.71875 -7.1875 C 7.71875 -6.664062 7.617188 -6.226562 7.421875 -5.875 C 7.234375 -5.519531 6.984375 -5.226562 6.671875 -5 C 6.359375 -4.78125 6.023438 -4.613281 5.671875 -4.5 L 8.421875 0 L 7.078125 0 L 4.625 -4.171875 L 2.53125 -4.171875 L 2.53125 0 L 1.375 0 L 1.375 -10.015625 Z M 4.015625 -9.015625 L 2.53125 -9.015625 L 2.53125 -5.171875 L 4.125 -5.171875 C 4.9375 -5.171875 5.535156 -5.335938 5.921875 -5.671875 C 6.316406 -6.003906 6.515625 -6.492188 6.515625 -7.140625 C 6.515625 -7.816406 6.304688 -8.296875 5.890625 -8.578125 C 5.484375 -8.867188 4.859375 -9.015625 4.015625 -9.015625 Z M 4.015625 -9.015625 "/></g></g><g style="fill:#ffffff;fill-opacity:1;"><g transform="translate(288.045855, 300.221699)"><path style="stroke:none" d="M 7.65625 0 L 6.421875 -3.171875 L 2.40625 -3.171875 L 1.171875 0 L 0 0 L 3.921875 -10.0625 L 4.96875 -10.0625 L 8.859375 0 Z M 6.0625 -4.21875 L 4.90625 -7.375 C 4.875 -7.457031 4.828125 -7.59375 4.765625 -7.78125 C 4.703125 -7.96875 4.640625 -8.160156 4.578125 -8.359375 C 4.515625 -8.554688 4.460938 -8.71875 4.421875 -8.84375 C 4.367188 -8.65625 4.316406 -8.46875 4.265625 -8.28125 C 4.210938 -8.101562 4.160156 -7.929688 4.109375 -7.765625 C 4.066406 -7.609375 4.023438 -7.476562 3.984375 -7.375 L 2.796875 -4.21875 Z M 6.0625 -4.21875 "/></g></g><g style="fill:#ffffff;fill-opacity:1;"><g transform="translate(296.915689, 300.221699)"><path style="stroke:none" d="M 9.328125 -5.109375 C 9.328125 -3.972656 9.117188 -3.023438 8.703125 -2.265625 C 8.296875 -1.515625 7.703125 -0.945312 6.921875 -0.5625 C 6.140625 -0.1875 5.195312 0 4.09375 0 L 1.375 0 L 1.375 -10.015625 L 4.390625 -10.015625 C 5.410156 -10.015625 6.285156 -9.828125 7.015625 -9.453125 C 7.753906 -9.085938 8.320312 -8.539062 8.71875 -7.8125 C 9.125 -7.082031 9.328125 -6.179688 9.328125 -5.109375 Z M 8.09375 -5.0625 C 8.09375 -5.957031 7.941406 -6.695312 7.640625 -7.28125 C 7.347656 -7.875 6.910156 -8.3125 6.328125 -8.59375 C 5.753906 -8.875 5.050781 -9.015625 4.21875 -9.015625 L 2.53125 -9.015625 L 2.53125 -1 L 3.953125 -1 C 5.328125 -1 6.359375 -1.335938 7.046875 -2.015625 C 7.742188 -2.703125 8.09375 -3.71875 8.09375 -5.0625 Z M 8.09375 -5.0625 "/></g></g><g style="fill:#ffffff;fill-opacity:1;"><g transform="translate(307.09372, 300.221699)"><path style="stroke:none" d="M 10.0625 -5.015625 C 10.0625 -4.242188 9.960938 -3.539062 9.765625 -2.90625 C 9.566406 -2.28125 9.273438 -1.738281 8.890625 -1.28125 C 8.503906 -0.832031 8.023438 -0.484375 7.453125 -0.234375 C 6.878906 0.015625 6.21875 0.140625 5.46875 0.140625 C 4.6875 0.140625 4.003906 0.015625 3.421875 -0.234375 C 2.847656 -0.484375 2.367188 -0.832031 1.984375 -1.28125 C 1.609375 -1.738281 1.328125 -2.285156 1.140625 -2.921875 C 0.953125 -3.554688 0.859375 -4.257812 0.859375 -5.03125 C 0.859375 -6.050781 1.023438 -6.945312 1.359375 -7.71875 C 1.703125 -8.5 2.21875 -9.101562 2.90625 -9.53125 C 3.59375 -9.957031 4.453125 -10.171875 5.484375 -10.171875 C 6.472656 -10.171875 7.304688 -9.957031 7.984375 -9.53125 C 8.671875 -9.113281 9.1875 -8.519531 9.53125 -7.75 C 9.882812 -6.976562 10.0625 -6.066406 10.0625 -5.015625 Z M 2.078125 -5.015625 C 2.078125 -4.171875 2.195312 -3.4375 2.4375 -2.8125 C 2.6875 -2.195312 3.0625 -1.71875 3.5625 -1.375 C 4.0625 -1.039062 4.695312 -0.875 5.46875 -0.875 C 6.238281 -0.875 6.875 -1.039062 7.375 -1.375 C 7.875 -1.71875 8.238281 -2.195312 8.46875 -2.8125 C 8.707031 -3.4375 8.828125 -4.171875 8.828125 -5.015625 C 8.828125 -6.304688 8.554688 -7.316406 8.015625 -8.046875 C 7.472656 -8.773438 6.628906 -9.140625 5.484375 -9.140625 C 4.710938 -9.140625 4.070312 -8.972656 3.5625 -8.640625 C 3.0625 -8.304688 2.6875 -7.832031 2.4375 -7.21875 C 2.195312 -6.601562 2.078125 -5.867188 2.078125 -5.015625 Z M 2.078125 -5.015625 "/></g></g><g style="fill:#ffffff;fill-opacity:1;"><g transform="translate(87.63446, 319.721698)"><path style="stroke:none" d="M 7.65625 0 L 6.421875 -3.171875 L 2.40625 -3.171875 L 1.171875 0 L 0 0 L 3.921875 -10.0625 L 4.96875 -10.0625 L 8.859375 0 Z M 6.0625 -4.21875 L 4.90625 -7.375 C 4.875 -7.457031 4.828125 -7.59375 4.765625 -7.78125 C 4.703125 -7.96875 4.640625 -8.160156 4.578125 -8.359375 C 4.515625 -8.554688 4.460938 -8.71875 4.421875 -8.84375 C 4.367188 -8.65625 4.316406 -8.46875 4.265625 -8.28125 C 4.210938 -8.101562 4.160156 -7.929688 4.109375 -7.765625 C 4.066406 -7.609375 4.023438 -7.476562 3.984375 -7.375 L 2.796875 -4.21875 Z M 6.0625 -4.21875 "/></g></g><g style="fill:#ffffff;fill-opacity:1;"><g transform="translate(96.504294, 319.721698)"><path style="stroke:none" d="M 9.328125 -5.109375 C 9.328125 -3.972656 9.117188 -3.023438 8.703125 -2.265625 C 8.296875 -1.515625 7.703125 -0.945312 6.921875 -0.5625 C 6.140625 -0.1875 5.195312 0 4.09375 0 L 1.375 0 L 1.375 -10.015625 L 4.390625 -10.015625 C 5.410156 -10.015625 6.285156 -9.828125 7.015625 -9.453125 C 7.753906 -9.085938 8.320312 -8.539062 8.71875 -7.8125 C 9.125 -7.082031 9.328125 -6.179688 9.328125 -5.109375 Z M 8.09375 -5.0625 C 8.09375 -5.957031 7.941406 -6.695312 7.640625 -7.28125 C 7.347656 -7.875 6.910156 -8.3125 6.328125 -8.59375 C 5.753906 -8.875 5.050781 -9.015625 4.21875 -9.015625 L 2.53125 -9.015625 L 2.53125 -1 L 3.953125 -1 C 5.328125 -1 6.359375 -1.335938 7.046875 -2.015625 C 7.742188 -2.703125 8.09375 -3.71875 8.09375 -5.0625 Z M 8.09375 -5.0625 "/></g></g><g style="fill:#ffffff;fill-opacity:1;"><g transform="translate(106.682337, 319.721698)"><path style="stroke:none" d="M 5.78125 0 L 2.40625 -8.859375 L 2.359375 -8.859375 C 2.378906 -8.671875 2.394531 -8.441406 2.40625 -8.171875 C 2.414062 -7.910156 2.425781 -7.617188 2.4375 -7.296875 C 2.445312 -6.984375 2.453125 -6.660156 2.453125 -6.328125 L 2.453125 0 L 1.375 0 L 1.375 -10.015625 L 3.09375 -10.015625 L 6.265625 -1.6875 L 6.3125 -1.6875 L 9.53125 -10.015625 L 11.25 -10.015625 L 11.25 0 L 10.09375 0 L 10.09375 -6.40625 C 10.09375 -6.707031 10.097656 -7.003906 10.109375 -7.296875 C 10.117188 -7.597656 10.128906 -7.882812 10.140625 -8.15625 C 10.160156 -8.425781 10.175781 -8.660156 10.1875 -8.859375 L 10.140625 -8.859375 L 6.734375 0 Z M 5.78125 0 "/></g></g><g style="fill:#ffffff;fill-opacity:1;"><g transform="translate(119.298726, 319.721698)"><path style="stroke:none" d="M 1.375 0 L 1.375 -10.015625 L 2.53125 -10.015625 L 2.53125 0 Z M 1.375 0 "/></g></g><g style="fill:#ffffff;fill-opacity:1;"><g transform="translate(123.216519, 319.721698)"><path style="stroke:none" d="M 9.203125 0 L 7.859375 0 L 2.390625 -8.40625 L 2.34375 -8.40625 C 2.351562 -8.1875 2.367188 -7.929688 2.390625 -7.640625 C 2.410156 -7.359375 2.425781 -7.054688 2.4375 -6.734375 C 2.445312 -6.410156 2.453125 -6.082031 2.453125 -5.75 L 2.453125 0 L 1.375 0 L 1.375 -10.015625 L 2.703125 -10.015625 L 8.140625 -1.625 L 8.1875 -1.625 C 8.1875 -1.789062 8.175781 -2.019531 8.15625 -2.3125 C 8.144531 -2.601562 8.132812 -2.921875 8.125 -3.265625 C 8.113281 -3.609375 8.109375 -3.925781 8.109375 -4.21875 L 8.109375 -10.015625 L 9.203125 -10.015625 Z M 9.203125 0 "/></g></g><g style="fill:#ffffff;fill-opacity:1;"><g transform="translate(133.778122, 319.721698)"><path style="stroke:none" d="M 1.375 0 L 1.375 -10.015625 L 2.53125 -10.015625 L 2.53125 0 Z M 1.375 0 "/></g></g><g style="fill:#ffffff;fill-opacity:1;"><g transform="translate(137.695915, 319.721698)"><path style="stroke:none" d="M 7.015625 -2.671875 C 7.015625 -2.078125 6.867188 -1.566406 6.578125 -1.140625 C 6.285156 -0.722656 5.875 -0.40625 5.34375 -0.1875 C 4.8125 0.03125 4.1875 0.140625 3.46875 0.140625 C 3.09375 0.140625 2.734375 0.117188 2.390625 0.078125 C 2.054688 0.046875 1.75 0 1.46875 -0.0625 C 1.1875 -0.132812 0.9375 -0.222656 0.71875 -0.328125 L 0.71875 -1.453125 C 1.0625 -1.304688 1.476562 -1.171875 1.96875 -1.046875 C 2.46875 -0.929688 2.984375 -0.875 3.515625 -0.875 C 4.023438 -0.875 4.453125 -0.941406 4.796875 -1.078125 C 5.140625 -1.210938 5.398438 -1.40625 5.578125 -1.65625 C 5.765625 -1.90625 5.859375 -2.207031 5.859375 -2.5625 C 5.859375 -2.90625 5.78125 -3.191406 5.625 -3.421875 C 5.476562 -3.660156 5.226562 -3.875 4.875 -4.0625 C 4.53125 -4.25 4.054688 -4.453125 3.453125 -4.671875 C 3.023438 -4.816406 2.648438 -4.976562 2.328125 -5.15625 C 2.003906 -5.34375 1.734375 -5.550781 1.515625 -5.78125 C 1.296875 -6.007812 1.128906 -6.269531 1.015625 -6.5625 C 0.898438 -6.863281 0.84375 -7.210938 0.84375 -7.609375 C 0.84375 -8.140625 0.976562 -8.59375 1.25 -8.96875 C 1.53125 -9.351562 1.910156 -9.644531 2.390625 -9.84375 C 2.867188 -10.050781 3.421875 -10.15625 4.046875 -10.15625 C 4.578125 -10.15625 5.070312 -10.101562 5.53125 -10 C 5.988281 -9.90625 6.40625 -9.773438 6.78125 -9.609375 L 6.421875 -8.609375 C 6.054688 -8.753906 5.671875 -8.875 5.265625 -8.96875 C 4.867188 -9.070312 4.453125 -9.125 4.015625 -9.125 C 3.585938 -9.125 3.226562 -9.0625 2.9375 -8.9375 C 2.644531 -8.8125 2.421875 -8.632812 2.265625 -8.40625 C 2.109375 -8.1875 2.03125 -7.914062 2.03125 -7.59375 C 2.03125 -7.25 2.101562 -6.957031 2.25 -6.71875 C 2.394531 -6.488281 2.628906 -6.28125 2.953125 -6.09375 C 3.285156 -5.914062 3.722656 -5.726562 4.265625 -5.53125 C 4.847656 -5.320312 5.34375 -5.097656 5.75 -4.859375 C 6.164062 -4.617188 6.476562 -4.320312 6.6875 -3.96875 C 6.90625 -3.625 7.015625 -3.191406 7.015625 -2.671875 Z M 7.015625 -2.671875 "/></g></g><g style="fill:#ffffff;fill-opacity:1;"><g transform="translate(145.387672, 319.721698)"><path style="stroke:none" d="M 4.453125 0 L 3.28125 0 L 3.28125 -8.984375 L 0.125 -8.984375 L 0.125 -10.015625 L 7.578125 -10.015625 L 7.578125 -8.984375 L 4.453125 -8.984375 Z M 4.453125 0 "/></g></g><g style="fill:#ffffff;fill-opacity:1;"><g transform="translate(153.11367, 319.721698)"><path style="stroke:none" d="M 4.078125 -10.015625 C 4.898438 -10.015625 5.578125 -9.910156 6.109375 -9.703125 C 6.648438 -9.503906 7.050781 -9.195312 7.3125 -8.78125 C 7.582031 -8.363281 7.71875 -7.832031 7.71875 -7.1875 C 7.71875 -6.664062 7.617188 -6.226562 7.421875 -5.875 C 7.234375 -5.519531 6.984375 -5.226562 6.671875 -5 C 6.359375 -4.78125 6.023438 -4.613281 5.671875 -4.5 L 8.421875 0 L 7.078125 0 L 4.625 -4.171875 L 2.53125 -4.171875 L 2.53125 0 L 1.375 0 L 1.375 -10.015625 Z M 4.015625 -9.015625 L 2.53125 -9.015625 L 2.53125 -5.171875 L 4.125 -5.171875 C 4.9375 -5.171875 5.535156 -5.335938 5.921875 -5.671875 C 6.316406 -6.003906 6.515625 -6.492188 6.515625 -7.140625 C 6.515625 -7.816406 6.304688 -8.296875 5.890625 -8.578125 C 5.484375 -8.867188 4.859375 -9.015625 4.015625 -9.015625 Z M 4.015625 -9.015625 "/></g></g><g style="fill:#ffffff;fill-opacity:1;"><g transform="translate(161.77117, 319.721698)"><path style="stroke:none" d="M 7.65625 0 L 6.421875 -3.171875 L 2.40625 -3.171875 L 1.171875 0 L 0 0 L 3.921875 -10.0625 L 4.96875 -10.0625 L 8.859375 0 Z M 6.0625 -4.21875 L 4.90625 -7.375 C 4.875 -7.457031 4.828125 -7.59375 4.765625 -7.78125 C 4.703125 -7.96875 4.640625 -8.160156 4.578125 -8.359375 C 4.515625 -8.554688 4.460938 -8.71875 4.421875 -8.84375 C 4.367188 -8.65625 4.316406 -8.46875 4.265625 -8.28125 C 4.210938 -8.101562 4.160156 -7.929688 4.109375 -7.765625 C 4.066406 -7.609375 4.023438 -7.476562 3.984375 -7.375 L 2.796875 -4.21875 Z M 6.0625 -4.21875 "/></g></g><g style="fill:#ffffff;fill-opacity:1;"><g transform="translate(170.641005, 319.721698)"><path style="stroke:none" d="M 4.453125 0 L 3.28125 0 L 3.28125 -8.984375 L 0.125 -8.984375 L 0.125 -10.015625 L 7.578125 -10.015625 L 7.578125 -8.984375 L 4.453125 -8.984375 Z M 4.453125 0 "/></g></g><g style="fill:#ffffff;fill-opacity:1;"><g transform="translate(178.367002, 319.721698)"><path style="stroke:none" d="M 1.375 0 L 1.375 -10.015625 L 2.53125 -10.015625 L 2.53125 0 Z M 1.375 0 "/></g></g><g style="fill:#ffffff;fill-opacity:1;"><g transform="translate(182.284795, 319.721698)"><path style="stroke:none" d="M 8.359375 -10.015625 L 4.765625 0 L 3.59375 0 L 0 -10.015625 L 1.21875 -10.015625 L 3.5625 -3.421875 C 3.65625 -3.148438 3.738281 -2.894531 3.8125 -2.65625 C 3.894531 -2.414062 3.960938 -2.179688 4.015625 -1.953125 C 4.078125 -1.734375 4.128906 -1.519531 4.171875 -1.3125 C 4.222656 -1.519531 4.273438 -1.734375 4.328125 -1.953125 C 4.390625 -2.179688 4.457031 -2.414062 4.53125 -2.65625 C 4.613281 -2.90625 4.703125 -3.164062 4.796875 -3.4375 L 7.125 -10.015625 Z M 8.359375 -10.015625 "/></g></g><g style="fill:#ffffff;fill-opacity:1;"><g transform="translate(190.647782, 319.721698)"><path style="stroke:none" d="M 10.0625 -5.015625 C 10.0625 -4.242188 9.960938 -3.539062 9.765625 -2.90625 C 9.566406 -2.28125 9.273438 -1.738281 8.890625 -1.28125 C 8.503906 -0.832031 8.023438 -0.484375 7.453125 -0.234375 C 6.878906 0.015625 6.21875 0.140625 5.46875 0.140625 C 4.6875 0.140625 4.003906 0.015625 3.421875 -0.234375 C 2.847656 -0.484375 2.367188 -0.832031 1.984375 -1.28125 C 1.609375 -1.738281 1.328125 -2.285156 1.140625 -2.921875 C 0.953125 -3.554688 0.859375 -4.257812 0.859375 -5.03125 C 0.859375 -6.050781 1.023438 -6.945312 1.359375 -7.71875 C 1.703125 -8.5 2.21875 -9.101562 2.90625 -9.53125 C 3.59375 -9.957031 4.453125 -10.171875 5.484375 -10.171875 C 6.472656 -10.171875 7.304688 -9.957031 7.984375 -9.53125 C 8.671875 -9.113281 9.1875 -8.519531 9.53125 -7.75 C 9.882812 -6.976562 10.0625 -6.066406 10.0625 -5.015625 Z M 2.078125 -5.015625 C 2.078125 -4.171875 2.195312 -3.4375 2.4375 -2.8125 C 2.6875 -2.195312 3.0625 -1.71875 3.5625 -1.375 C 4.0625 -1.039062 4.695312 -0.875 5.46875 -0.875 C 6.238281 -0.875 6.875 -1.039062 7.375 -1.375 C 7.875 -1.71875 8.238281 -2.195312 8.46875 -2.8125 C 8.707031 -3.4375 8.828125 -4.171875 8.828125 -5.015625 C 8.828125 -6.304688 8.554688 -7.316406 8.015625 -8.046875 C 7.472656 -8.773438 6.628906 -9.140625 5.484375 -9.140625 C 4.710938 -9.140625 4.070312 -8.972656 3.5625 -8.640625 C 3.0625 -8.304688 2.6875 -7.832031 2.4375 -7.21875 C 2.195312 -6.601562 2.078125 -5.867188 2.078125 -5.015625 Z M 2.078125 -5.015625 "/></g></g><g style="fill:#ffffff;fill-opacity:1;"><g transform="translate(201.558704, 319.721698)"><path style="stroke:none" d="M 0.5625 -3.265625 L 0.5625 -4.28125 L 3.953125 -4.28125 L 3.953125 -3.265625 Z M 0.5625 -3.265625 "/></g></g><g style="fill:#ffffff;fill-opacity:1;"><g transform="translate(206.072391, 319.721698)"><path style="stroke:none" d="M 2.53125 0 L 1.375 0 L 1.375 -10.015625 L 6.953125 -10.015625 L 6.953125 -8.984375 L 2.53125 -8.984375 L 2.53125 -5.3125 L 6.6875 -5.3125 L 6.6875 -4.296875 L 2.53125 -4.296875 Z M 2.53125 0 "/></g></g><g style="fill:#ffffff;fill-opacity:1;"><g transform="translate(213.312095, 319.721698)"><path style="stroke:none" d="M 1.375 0 L 1.375 -10.015625 L 2.53125 -10.015625 L 2.53125 0 Z M 1.375 0 "/></g></g><g style="fill:#ffffff;fill-opacity:1;"><g transform="translate(217.229888, 319.721698)"><path style="stroke:none" d="M 9.203125 0 L 7.859375 0 L 2.390625 -8.40625 L 2.34375 -8.40625 C 2.351562 -8.1875 2.367188 -7.929688 2.390625 -7.640625 C 2.410156 -7.359375 2.425781 -7.054688 2.4375 -6.734375 C 2.445312 -6.410156 2.453125 -6.082031 2.453125 -5.75 L 2.453125 0 L 1.375 0 L 1.375 -10.015625 L 2.703125 -10.015625 L 8.140625 -1.625 L 8.1875 -1.625 C 8.1875 -1.789062 8.175781 -2.019531 8.15625 -2.3125 C 8.144531 -2.601562 8.132812 -2.921875 8.125 -3.265625 C 8.113281 -3.609375 8.109375 -3.925781 8.109375 -4.21875 L 8.109375 -10.015625 L 9.203125 -10.015625 Z M 9.203125 0 "/></g></g><g style="fill:#ffffff;fill-opacity:1;"><g transform="translate(227.791491, 319.721698)"><path style="stroke:none" d="M 7.65625 0 L 6.421875 -3.171875 L 2.40625 -3.171875 L 1.171875 0 L 0 0 L 3.921875 -10.0625 L 4.96875 -10.0625 L 8.859375 0 Z M 6.0625 -4.21875 L 4.90625 -7.375 C 4.875 -7.457031 4.828125 -7.59375 4.765625 -7.78125 C 4.703125 -7.96875 4.640625 -8.160156 4.578125 -8.359375 C 4.515625 -8.554688 4.460938 -8.71875 4.421875 -8.84375 C 4.367188 -8.65625 4.316406 -8.46875 4.265625 -8.28125 C 4.210938 -8.101562 4.160156 -7.929688 4.109375 -7.765625 C 4.066406 -7.609375 4.023438 -7.476562 3.984375 -7.375 L 2.796875 -4.21875 Z M 6.0625 -4.21875 "/></g></g><g style="fill:#ffffff;fill-opacity:1;"><g transform="translate(236.661325, 319.721698)"><path style="stroke:none" d="M 9.203125 0 L 7.859375 0 L 2.390625 -8.40625 L 2.34375 -8.40625 C 2.351562 -8.1875 2.367188 -7.929688 2.390625 -7.640625 C 2.410156 -7.359375 2.425781 -7.054688 2.4375 -6.734375 C 2.445312 -6.410156 2.453125 -6.082031 2.453125 -5.75 L 2.453125 0 L 1.375 0 L 1.375 -10.015625 L 2.703125 -10.015625 L 8.140625 -1.625 L 8.1875 -1.625 C 8.1875 -1.789062 8.175781 -2.019531 8.15625 -2.3125 C 8.144531 -2.601562 8.132812 -2.921875 8.125 -3.265625 C 8.113281 -3.609375 8.109375 -3.925781 8.109375 -4.21875 L 8.109375 -10.015625 L 9.203125 -10.015625 Z M 9.203125 0 "/></g></g><g style="fill:#ffffff;fill-opacity:1;"><g transform="translate(247.222928, 319.721698)"><path style="stroke:none" d="M 5.65625 -9.125 C 5.101562 -9.125 4.601562 -9.03125 4.15625 -8.84375 C 3.71875 -8.65625 3.34375 -8.378906 3.03125 -8.015625 C 2.726562 -7.660156 2.492188 -7.226562 2.328125 -6.71875 C 2.160156 -6.21875 2.078125 -5.648438 2.078125 -5.015625 C 2.078125 -4.171875 2.207031 -3.4375 2.46875 -2.8125 C 2.738281 -2.195312 3.132812 -1.722656 3.65625 -1.390625 C 4.175781 -1.054688 4.832031 -0.890625 5.625 -0.890625 C 6.070312 -0.890625 6.488281 -0.925781 6.875 -1 C 7.269531 -1.070312 7.65625 -1.164062 8.03125 -1.28125 L 8.03125 -0.265625 C 7.664062 -0.128906 7.28125 -0.03125 6.875 0.03125 C 6.476562 0.101562 6.003906 0.140625 5.453125 0.140625 C 4.429688 0.140625 3.578125 -0.0664062 2.890625 -0.484375 C 2.210938 -0.910156 1.703125 -1.507812 1.359375 -2.28125 C 1.023438 -3.0625 0.859375 -3.972656 0.859375 -5.015625 C 0.859375 -5.773438 0.960938 -6.46875 1.171875 -7.09375 C 1.390625 -7.726562 1.703125 -8.269531 2.109375 -8.71875 C 2.515625 -9.175781 3.015625 -9.53125 3.609375 -9.78125 C 4.210938 -10.03125 4.898438 -10.15625 5.671875 -10.15625 C 6.171875 -10.15625 6.65625 -10.101562 7.125 -10 C 7.601562 -9.90625 8.03125 -9.765625 8.40625 -9.578125 L 7.9375 -8.59375 C 7.625 -8.738281 7.273438 -8.863281 6.890625 -8.96875 C 6.503906 -9.070312 6.09375 -9.125 5.65625 -9.125 Z M 5.65625 -9.125 "/></g></g><g style="fill:#ffffff;fill-opacity:1;"><g transform="translate(256.05851, 319.721698)"><path style="stroke:none" d="M 1.375 0 L 1.375 -10.015625 L 2.53125 -10.015625 L 2.53125 0 Z M 1.375 0 "/></g></g><g style="fill:#ffffff;fill-opacity:1;"><g transform="translate(259.976303, 319.721698)"><path style="stroke:none" d="M 6.953125 0 L 1.375 0 L 1.375 -10.015625 L 6.953125 -10.015625 L 6.953125 -8.984375 L 2.53125 -8.984375 L 2.53125 -5.75 L 6.6875 -5.75 L 6.6875 -4.734375 L 2.53125 -4.734375 L 2.53125 -1.03125 L 6.953125 -1.03125 Z M 6.953125 0 "/></g></g><g style="fill:#ffffff;fill-opacity:1;"><g transform="translate(267.770793, 319.721698)"><path style="stroke:none" d="M 4.078125 -10.015625 C 4.898438 -10.015625 5.578125 -9.910156 6.109375 -9.703125 C 6.648438 -9.503906 7.050781 -9.195312 7.3125 -8.78125 C 7.582031 -8.363281 7.71875 -7.832031 7.71875 -7.1875 C 7.71875 -6.664062 7.617188 -6.226562 7.421875 -5.875 C 7.234375 -5.519531 6.984375 -5.226562 6.671875 -5 C 6.359375 -4.78125 6.023438 -4.613281 5.671875 -4.5 L 8.421875 0 L 7.078125 0 L 4.625 -4.171875 L 2.53125 -4.171875 L 2.53125 0 L 1.375 0 L 1.375 -10.015625 Z M 4.015625 -9.015625 L 2.53125 -9.015625 L 2.53125 -5.171875 L 4.125 -5.171875 C 4.9375 -5.171875 5.535156 -5.335938 5.921875 -5.671875 C 6.316406 -6.003906 6.515625 -6.492188 6.515625 -7.140625 C 6.515625 -7.816406 6.304688 -8.296875 5.890625 -8.578125 C 5.484375 -8.867188 4.859375 -9.015625 4.015625 -9.015625 Z M 4.015625 -9.015625 "/></g></g><g style="fill:#ffffff;fill-opacity:1;"><g transform="translate(276.428294, 319.721698)"><path style="stroke:none" d="M 10.0625 -5.015625 C 10.0625 -4.242188 9.960938 -3.539062 9.765625 -2.90625 C 9.566406 -2.28125 9.273438 -1.738281 8.890625 -1.28125 C 8.503906 -0.832031 8.023438 -0.484375 7.453125 -0.234375 C 6.878906 0.015625 6.21875 0.140625 5.46875 0.140625 C 4.6875 0.140625 4.003906 0.015625 3.421875 -0.234375 C 2.847656 -0.484375 2.367188 -0.832031 1.984375 -1.28125 C 1.609375 -1.738281 1.328125 -2.285156 1.140625 -2.921875 C 0.953125 -3.554688 0.859375 -4.257812 0.859375 -5.03125 C 0.859375 -6.050781 1.023438 -6.945312 1.359375 -7.71875 C 1.703125 -8.5 2.21875 -9.101562 2.90625 -9.53125 C 3.59375 -9.957031 4.453125 -10.171875 5.484375 -10.171875 C 6.472656 -10.171875 7.304688 -9.957031 7.984375 -9.53125 C 8.671875 -9.113281 9.1875 -8.519531 9.53125 -7.75 C 9.882812 -6.976562 10.0625 -6.066406 10.0625 -5.015625 Z M 2.078125 -5.015625 C 2.078125 -4.171875 2.195312 -3.4375 2.4375 -2.8125 C 2.6875 -2.195312 3.0625 -1.71875 3.5625 -1.375 C 4.0625 -1.039062 4.695312 -0.875 5.46875 -0.875 C 6.238281 -0.875 6.875 -1.039062 7.375 -1.375 C 7.875 -1.71875 8.238281 -2.195312 8.46875 -2.8125 C 8.707031 -3.4375 8.828125 -4.171875 8.828125 -5.015625 C 8.828125 -6.304688 8.554688 -7.316406 8.015625 -8.046875 C 7.472656 -8.773438 6.628906 -9.140625 5.484375 -9.140625 C 4.710938 -9.140625 4.070312 -8.972656 3.5625 -8.640625 C 3.0625 -8.304688 2.6875 -7.832031 2.4375 -7.21875 C 2.195312 -6.601562 2.078125 -5.867188 2.078125 -5.015625 Z M 2.078125 -5.015625 "/></g></g><g clip-rule="nonzero" clip-path="url(#94f535b321)"><g clip-rule="nonzero" clip-path="url(#f1d2953696)"><path style=" stroke:none;fill-rule:nonzero;fill:#ffffff;fill-opacity:1;" d="M 102.449219 8.386719 L 262.898438 8.386719 L 262.898438 160.515625 L 102.449219 160.515625 Z M 102.449219 8.386719 "/></g></g><g clip-rule="nonzero" clip-path="url(#30b9bc26bd)"><path style=" stroke:none;fill-rule:nonzero;fill:#082750;fill-opacity:1;" d="M 261.71875 74.542969 L 244.21875 74.863281 C 243.398438 74.878906 242.925781 75.800781 243.394531 76.476562 L 246.105469 80.347656 C 246.140625 80.398438 246.128906 80.46875 246.078125 80.503906 L 188.003906 121.761719 C 187.925781 121.816406 187.824219 121.761719 187.824219 121.671875 L 187.824219 90.234375 C 187.824219 89.820312 187.605469 89.433594 187.25 89.222656 C 186.890625 89.011719 186.449219 89.003906 186.085938 89.203125 L 117.726562 126.371094 C 117.453125 126.519531 117.25 126.773438 117.160156 127.074219 C 117.074219 127.371094 117.105469 127.695312 117.253906 127.964844 L 120.175781 133.339844 C 120.484375 133.910156 121.199219 134.121094 121.773438 133.8125 L 179.1875 102.589844 C 179.261719 102.550781 179.355469 102.601562 179.355469 102.691406 L 179.355469 135.933594 C 179.355469 136.269531 179.460938 136.613281 179.699219 136.847656 C 179.9375 137.078125 180.234375 137.191406 180.53125 137.191406 C 180.769531 137.191406 181.007812 137.117188 181.214844 136.972656 L 250.929688 87.445312 C 250.980469 87.40625 251.054688 87.421875 251.089844 87.472656 L 254.597656 92.488281 C 255.070312 93.164062 256.101562 93.035156 256.394531 92.273438 L 262.695312 75.941406 C 262.957031 75.257812 262.445312 74.53125 261.71875 74.542969 "/></g><path style=" stroke:none;fill-rule:nonzero;fill:#76879e;fill-opacity:1;" d="M 160.960938 53.25 L 160.960938 99.316406 C 160.960938 99.355469 160.9375 99.394531 160.898438 99.414062 L 144.3125 108.4375 C 144.238281 108.476562 144.144531 108.421875 144.144531 108.335938 L 144.144531 53.25 C 144.144531 53.1875 144.195312 53.136719 144.261719 53.136719 L 160.84375 53.136719 C 160.910156 53.136719 160.960938 53.1875 160.960938 53.25 "/><g clip-rule="nonzero" clip-path="url(#4cef626d9a)"><path style=" stroke:none;fill-rule:nonzero;fill:#082750;fill-opacity:1;" d="M 228.203125 20.714844 L 228.203125 89.394531 C 228.203125 89.429688 228.183594 89.464844 228.152344 89.488281 L 211.566406 101.269531 C 211.492188 101.320312 211.386719 101.269531 211.386719 101.175781 L 211.386719 20.714844 C 211.386719 20.648438 211.4375 20.601562 211.5 20.601562 L 228.085938 20.601562 C 228.148438 20.601562 228.203125 20.648438 228.203125 20.714844 "/></g><path style=" stroke:none;fill-rule:nonzero;fill:#76879e;fill-opacity:1;" d="M 204.6875 62.65625 L 204.6875 106.097656 C 204.6875 106.132812 204.671875 106.171875 204.640625 106.191406 L 191.0625 115.839844 C 190.988281 115.890625 190.882812 115.835938 190.882812 115.746094 L 190.882812 90.234375 C 190.882812 88.75 190.085938 87.355469 188.8125 86.597656 C 188.539062 86.4375 188.253906 86.304688 187.960938 86.210938 C 187.914062 86.195312 187.878906 86.15625 187.878906 86.105469 L 187.878906 62.65625 C 187.878906 62.59375 187.933594 62.542969 187.996094 62.542969 L 204.574219 62.542969 C 204.636719 62.542969 204.6875 62.59375 204.6875 62.65625 "/><path style=" stroke:none;fill-rule:nonzero;fill:#082750;fill-opacity:1;" d="M 182.824219 34.28125 L 182.824219 87.429688 C 182.824219 87.46875 182.800781 87.507812 182.765625 87.527344 L 166.183594 96.542969 C 166.109375 96.585938 166.015625 96.53125 166.015625 96.445312 L 166.015625 34.28125 C 166.015625 34.214844 166.066406 34.164062 166.128906 34.164062 L 182.710938 34.164062 C 182.773438 34.164062 182.824219 34.214844 182.824219 34.28125 "/></g></svg>