<svg xmlns="http://www.w3.org/2000/svg" xmlns:xlink="http://www.w3.org/1999/xlink" width="500" zoomAndPan="magnify" viewBox="0 0 375 374.999991" height="500" preserveAspectRatio="xMidYMid meet" version="1.2"><defs><clipPath id="a57e1ad2a0"><path d="M 102.449219 27.554688 L 263 27.554688 L 263 179.683594 L 102.449219 179.683594 Z M 102.449219 27.554688 "/></clipPath><clipPath id="5665ef95ac"><path d="M 182.707031 27.554688 C 138.382812 27.554688 102.449219 61.609375 102.449219 103.621094 C 102.449219 145.628906 138.382812 179.683594 182.707031 179.683594 C 227.03125 179.683594 262.964844 145.628906 262.964844 103.621094 C 262.964844 61.609375 227.03125 27.554688 182.707031 27.554688 Z M 182.707031 27.554688 "/></clipPath><clipPath id="5aea994343"><path d="M 116.292969 99 L 262 99 L 262 162 L 116.292969 162 Z M 116.292969 99 "/></clipPath><clipPath id="7c52aade14"><path d="M 210 45.28125 L 228 45.28125 L 228 127 L 210 127 Z M 210 45.28125 "/></clipPath></defs><g id="c5d2c22efd"><rect x="0" width="375" y="0" height="374.999991" style="fill:#ffffff;fill-opacity:1;stroke:none;"/><rect x="0" width="375" y="0" height="374.999991" style="fill:#082750;fill-opacity:1;stroke:none;"/><g style="fill:#ffffff;fill-opacity:1;"><g transform="translate(8.147832, 294.44796)"><path style="stroke:none" d="M 32.40625 0.921875 C 41.769531 1.023438 48.96875 -0.875 54 -4.78125 C 59.039062 -8.6875 61.5625 -14.34375 61.5625 -21.75 C 61.5625 -25.875 60.609375 -29.347656 58.703125 -32.171875 C 56.804688 -35.003906 54.363281 -37.394531 51.375 -39.34375 C 48.394531 -41.300781 45.207031 -42.972656 41.8125 -44.359375 C 38.414062 -45.753906 35.226562 -46.960938 32.25 -47.984375 C 29.269531 -49.015625 26.828125 -50.019531 24.921875 -51 C 23.015625 -51.976562 22.0625 -53.082031 22.0625 -54.3125 C 22.0625 -57.8125 25.300781 -59.5625 31.78125 -59.5625 C 34.769531 -59.5625 37.238281 -58.710938 39.1875 -57.015625 C 41.144531 -55.316406 42.429688 -52.875 43.046875 -49.6875 L 60.03125 -54.78125 C 58.382812 -62.394531 55.140625 -68.207031 50.296875 -72.21875 C 45.460938 -76.226562 39.289062 -78.234375 31.78125 -78.234375 C 22.425781 -78.234375 15.253906 -76.273438 10.265625 -72.359375 C 5.273438 -68.453125 2.78125 -62.847656 2.78125 -55.546875 C 2.78125 -51.535156 3.726562 -48.113281 5.625 -45.28125 C 7.53125 -42.457031 9.972656 -40.09375 12.953125 -38.1875 C 15.941406 -36.289062 19.109375 -34.695312 22.453125 -33.40625 C 25.796875 -32.125 28.957031 -30.96875 31.9375 -29.9375 C 34.925781 -28.90625 37.367188 -27.847656 39.265625 -26.765625 C 41.171875 -25.691406 42.125 -24.429688 42.125 -22.984375 C 42.125 -19.597656 38.882812 -17.90625 32.40625 -17.90625 C 29.519531 -17.90625 27.125 -18.75 25.21875 -20.4375 C 23.320312 -22.132812 21.960938 -24.476562 21.140625 -27.46875 L 4.328125 -22.375 C 5.972656 -14.863281 9.210938 -9.078125 14.046875 -5.015625 C 18.878906 -0.953125 25 1.023438 32.40625 0.921875 Z M 32.40625 0.921875 "/></g></g><g style="fill:#ffffff;fill-opacity:1;"><g transform="translate(72.800561, 294.44796)"><path style="stroke:none" d="M 14.65625 -65.734375 C 11.46875 -65.734375 8.945312 -66.582031 7.09375 -68.28125 C 5.25 -69.976562 4.328125 -72.367188 4.328125 -75.453125 C 4.328125 -78.441406 5.25 -80.785156 7.09375 -82.484375 C 8.945312 -84.179688 11.46875 -85.03125 14.65625 -85.03125 C 17.945312 -85.03125 20.492188 -84.179688 22.296875 -82.484375 C 24.097656 -80.785156 25 -78.441406 25 -75.453125 C 25 -68.972656 21.550781 -65.734375 14.65625 -65.734375 Z M 25 -61.71875 L 25 0 L 4.328125 0 L 4.328125 -61.71875 Z M 25 -61.71875 "/></g></g><g style="fill:#ffffff;fill-opacity:1;"><g transform="translate(102.118034, 294.44796)"><path style="stroke:none" d="M 24.84375 -58.484375 L 24.84375 -47.6875 L 52.3125 -47.6875 L 52.3125 -29.46875 L 24.84375 -29.46875 L 24.84375 0 L 4.328125 0 L 4.328125 -77.15625 L 52.3125 -77.15625 L 52.3125 -58.484375 Z M 24.84375 -58.484375 "/></g></g><g style="fill:#ffffff;fill-opacity:1;"><g transform="translate(158.747036, 294.44796)"><path style="stroke:none" d="M 52.3125 -20.515625 L 52.3125 0 L 4.328125 0 L 4.328125 -77.15625 L 24.84375 -77.15625 L 24.84375 -20.515625 Z M 52.3125 -20.515625 "/></g></g><g style="fill:#ffffff;fill-opacity:1;"><g transform="translate(214.758835, 294.44796)"><path style="stroke:none" d="M 33.015625 1.078125 C 23.660156 1.078125 16.410156 -2.363281 11.265625 -9.25 C 6.117188 -16.144531 3.546875 -25.921875 3.546875 -38.578125 C 3.546875 -51.234375 6.117188 -61.003906 11.265625 -67.890625 C 16.410156 -74.785156 23.660156 -78.234375 33.015625 -78.234375 C 42.484375 -78.234375 49.789062 -74.785156 54.9375 -67.890625 C 60.082031 -61.003906 62.65625 -51.234375 62.65625 -38.578125 C 62.65625 -25.921875 60.082031 -16.144531 54.9375 -9.25 C 49.789062 -2.363281 42.484375 1.078125 33.015625 1.078125 Z M 33.171875 -19.4375 C 36.160156 -19.4375 38.453125 -21.082031 40.046875 -24.375 C 41.640625 -27.664062 42.488281 -32.398438 42.59375 -38.578125 C 42.488281 -44.742188 41.640625 -49.472656 40.046875 -52.765625 C 38.453125 -56.066406 36.160156 -57.71875 33.171875 -57.71875 C 30.085938 -57.71875 27.722656 -56.066406 26.078125 -52.765625 C 24.429688 -49.472656 23.609375 -44.742188 23.609375 -38.578125 C 23.609375 -32.398438 24.429688 -27.664062 26.078125 -24.375 C 27.722656 -21.082031 30.085938 -19.4375 33.171875 -19.4375 Z M 33.171875 -19.4375 "/></g></g><g style="fill:#ffffff;fill-opacity:1;"><g transform="translate(280.954593, 294.44796)"><path style="stroke:none" d="M 88.109375 -77.15625 L 69.59375 0 L 52.46875 0 L 44.75 -37.03125 L 36.875 0 L 19.90625 0 L 1.390625 -77.15625 L 20.21875 -77.15625 L 28.703125 -31.640625 L 37.1875 -77.15625 L 52.15625 -77.15625 L 60.796875 -31.640625 L 69.28125 -77.15625 Z M 88.109375 -77.15625 "/></g></g><g clip-rule="nonzero" clip-path="url(#a57e1ad2a0)"><g clip-rule="nonzero" clip-path="url(#5665ef95ac)"><path style=" stroke:none;fill-rule:nonzero;fill:#ffffff;fill-opacity:1;" d="M 102.449219 27.554688 L 262.898438 27.554688 L 262.898438 179.683594 L 102.449219 179.683594 Z M 102.449219 27.554688 "/></g></g><g clip-rule="nonzero" clip-path="url(#5aea994343)"><path style=" stroke:none;fill-rule:nonzero;fill:#082750;fill-opacity:1;" d="M 260.933594 99.257812 L 243.433594 99.574219 C 242.613281 99.589844 242.140625 100.515625 242.613281 101.1875 L 245.320312 105.058594 C 245.355469 105.109375 245.34375 105.183594 245.292969 105.21875 L 187.21875 146.476562 C 187.144531 146.527344 187.039062 146.476562 187.039062 146.382812 L 187.039062 114.949219 C 187.039062 114.53125 186.820312 114.148438 186.464844 113.9375 C 186.105469 113.726562 185.664062 113.714844 185.300781 113.914062 L 116.941406 151.085938 C 116.667969 151.234375 116.464844 151.484375 116.375 151.785156 C 116.289062 152.082031 116.320312 152.40625 116.46875 152.679688 L 119.390625 158.050781 C 119.703125 158.625 120.414062 158.835938 120.988281 158.523438 L 178.402344 127.304688 C 178.476562 127.261719 178.570312 127.316406 178.570312 127.402344 L 178.570312 160.648438 C 178.570312 160.984375 178.675781 161.328125 178.914062 161.5625 C 179.152344 161.792969 179.449219 161.902344 179.746094 161.902344 C 179.984375 161.902344 180.226562 161.828125 180.429688 161.6875 L 250.144531 112.15625 C 250.195312 112.121094 250.269531 112.132812 250.304688 112.183594 L 253.816406 117.203125 C 254.285156 117.875 255.316406 117.75 255.609375 116.984375 L 261.910156 100.652344 C 262.171875 99.972656 261.660156 99.242188 260.933594 99.257812 "/></g><path style=" stroke:none;fill-rule:nonzero;fill:#76879e;fill-opacity:1;" d="M 160.175781 77.964844 L 160.175781 124.027344 C 160.175781 124.070312 160.152344 124.109375 160.113281 124.128906 L 143.527344 133.148438 C 143.453125 133.191406 143.363281 133.136719 143.363281 133.050781 L 143.363281 77.964844 C 143.363281 77.902344 143.414062 77.851562 143.476562 77.851562 L 160.0625 77.851562 C 160.125 77.851562 160.175781 77.902344 160.175781 77.964844 "/><g clip-rule="nonzero" clip-path="url(#7c52aade14)"><path style=" stroke:none;fill-rule:nonzero;fill:#082750;fill-opacity:1;" d="M 227.417969 45.425781 L 227.417969 114.105469 C 227.417969 114.144531 227.398438 114.175781 227.367188 114.199219 L 210.78125 125.980469 C 210.707031 126.035156 210.601562 125.980469 210.601562 125.886719 L 210.601562 45.425781 C 210.601562 45.363281 210.652344 45.3125 210.71875 45.3125 L 227.300781 45.3125 C 227.363281 45.3125 227.417969 45.363281 227.417969 45.425781 "/></g><path style=" stroke:none;fill-rule:nonzero;fill:#76879e;fill-opacity:1;" d="M 203.90625 87.367188 L 203.90625 130.808594 C 203.90625 130.847656 203.886719 130.882812 203.855469 130.902344 L 190.277344 140.550781 C 190.203125 140.605469 190.097656 140.550781 190.097656 140.457031 L 190.097656 114.945312 C 190.097656 113.464844 189.300781 112.066406 188.027344 111.308594 C 187.753906 111.148438 187.46875 111.015625 187.175781 110.925781 C 187.128906 110.910156 187.097656 110.867188 187.097656 110.820312 L 187.097656 87.367188 C 187.097656 87.304688 187.148438 87.253906 187.210938 87.253906 L 203.789062 87.253906 C 203.851562 87.253906 203.90625 87.304688 203.90625 87.367188 "/><path style=" stroke:none;fill-rule:nonzero;fill:#082750;fill-opacity:1;" d="M 182.039062 58.992188 L 182.039062 112.140625 C 182.039062 112.183594 182.015625 112.21875 181.980469 112.242188 L 165.398438 121.257812 C 165.324219 121.296875 165.230469 121.242188 165.230469 121.15625 L 165.230469 58.992188 C 165.230469 58.929688 165.28125 58.878906 165.34375 58.878906 L 181.925781 58.878906 C 181.988281 58.878906 182.039062 58.929688 182.039062 58.992188 "/></g></svg>