<svg xmlns="http://www.w3.org/2000/svg" xmlns:xlink="http://www.w3.org/1999/xlink" width="500" zoomAndPan="magnify" viewBox="0 0 375 374.999991" height="500" preserveAspectRatio="xMidYMid meet" version="1.2"><defs><clipPath id="50a26b4200"><path d="M 17.277344 0 L 372 0 L 372 349.113281 L 17.277344 349.113281 Z M 17.277344 0 "/></clipPath><clipPath id="76738d7a47"><path d="M 194.832031 0 C 96.769531 0 17.277344 78.152344 17.277344 174.558594 C 17.277344 270.960938 96.769531 349.113281 194.832031 349.113281 C 292.894531 349.113281 372.386719 270.960938 372.386719 174.558594 C 372.386719 78.152344 292.894531 0 194.832031 0 Z M 194.832031 0 "/></clipPath><clipPath id="ef980bee3e"><path d="M 30.105469 138 L 344 138 L 344 273.601562 L 30.105469 273.601562 Z M 30.105469 138 "/></clipPath><clipPath id="183444510e"><path d="M 233 22.351562 L 270 22.351562 L 270 197 L 233 197 Z M 233 22.351562 "/></clipPath></defs><g id="7cfdf4b11e"><g clip-rule="nonzero" clip-path="url(#50a26b4200)"><g clip-rule="nonzero" clip-path="url(#76738d7a47)"><path style=" stroke:none;fill-rule:nonzero;fill:#082750;fill-opacity:1;" d="M 17.277344 0 L 371.84375 0 L 371.84375 349.113281 L 17.277344 349.113281 Z M 17.277344 0 "/></g></g><g clip-rule="nonzero" clip-path="url(#ef980bee3e)"><path style=" stroke:none;fill-rule:nonzero;fill:#ffffff;fill-opacity:1;" d="M 341.570312 138.589844 L 303.882812 139.277344 C 302.117188 139.308594 301.097656 141.300781 302.113281 142.746094 L 307.945312 151.085938 C 308.023438 151.195312 307.996094 151.347656 307.886719 151.425781 L 182.835938 240.265625 C 182.671875 240.382812 182.445312 240.265625 182.445312 240.066406 L 182.445312 172.375 C 182.445312 171.484375 181.976562 170.65625 181.207031 170.203125 C 180.441406 169.742188 179.488281 169.726562 178.707031 170.152344 L 31.507812 250.191406 C 30.917969 250.511719 30.480469 251.054688 30.289062 251.699219 C 30.097656 252.34375 30.171875 253.039062 30.492188 253.625 L 36.785156 265.195312 C 37.449219 266.425781 38.988281 266.878906 40.21875 266.210938 L 163.851562 198.980469 C 164.015625 198.894531 164.214844 199.011719 164.214844 199.195312 L 164.214844 270.78125 C 164.214844 271.507812 164.4375 272.246094 164.957031 272.75 C 165.464844 273.246094 166.105469 273.488281 166.746094 273.488281 C 167.261719 273.488281 167.773438 273.328125 168.214844 273.019531 L 318.335938 166.367188 C 318.445312 166.289062 318.597656 166.316406 318.679688 166.425781 L 326.238281 177.234375 C 327.25 178.679688 329.46875 178.410156 330.105469 176.761719 L 343.667969 141.59375 C 344.230469 140.132812 343.132812 138.5625 341.570312 138.589844 "/></g><path style=" stroke:none;fill-rule:nonzero;fill:#497fc5;fill-opacity:1;" d="M 124.601562 92.742188 L 124.601562 191.929688 C 124.601562 192.019531 124.550781 192.101562 124.472656 192.144531 L 88.757812 211.570312 C 88.597656 211.660156 88.398438 211.539062 88.398438 211.355469 L 88.398438 92.742188 C 88.398438 92.605469 88.507812 92.496094 88.640625 92.496094 L 124.355469 92.496094 C 124.492188 92.496094 124.601562 92.605469 124.601562 92.742188 "/><g clip-rule="nonzero" clip-path="url(#183444510e)"><path style=" stroke:none;fill-rule:nonzero;fill:#ffffff;fill-opacity:1;" d="M 269.394531 22.675781 L 269.394531 170.566406 C 269.394531 170.644531 269.355469 170.71875 269.289062 170.765625 L 233.574219 196.136719 C 233.410156 196.25 233.191406 196.136719 233.191406 195.9375 L 233.191406 22.675781 C 233.191406 22.539062 233.296875 22.429688 233.433594 22.429688 L 269.148438 22.429688 C 269.28125 22.429688 269.394531 22.539062 269.394531 22.675781 "/></g><path style=" stroke:none;fill-rule:nonzero;fill:#497fc5;fill-opacity:1;" d="M 218.765625 112.992188 L 218.765625 206.535156 C 218.765625 206.613281 218.726562 206.691406 218.664062 206.734375 L 189.421875 227.507812 C 189.257812 227.621094 189.035156 227.503906 189.035156 227.308594 L 189.035156 172.375 C 189.035156 169.179688 187.324219 166.175781 184.578125 164.542969 C 183.992188 164.199219 183.378906 163.914062 182.738281 163.710938 C 182.640625 163.679688 182.570312 163.589844 182.570312 163.488281 L 182.570312 112.992188 C 182.570312 112.855469 182.679688 112.746094 182.816406 112.746094 L 218.519531 112.746094 C 218.652344 112.746094 218.765625 112.855469 218.765625 112.992188 "/><path style=" stroke:none;fill-rule:nonzero;fill:#ffffff;fill-opacity:1;" d="M 171.683594 51.890625 L 171.683594 166.332031 C 171.683594 166.421875 171.632812 166.503906 171.554688 166.550781 L 135.851562 185.964844 C 135.6875 186.054688 135.488281 185.933594 135.488281 185.746094 L 135.488281 51.890625 C 135.488281 51.75 135.601562 51.644531 135.734375 51.644531 L 171.4375 51.644531 C 171.574219 51.644531 171.683594 51.75 171.683594 51.890625 "/><g style="fill:#ffffff;fill-opacity:1;"><g transform="translate(109.599607, 315.750478)"><path style="stroke:none" d="M 14.28125 0.3125 C 11.957031 0.3125 9.875 -0.0625 8.03125 -0.8125 C 6.195312 -1.5625 4.726562 -2.675781 3.625 -4.15625 C 2.53125 -5.632812 1.953125 -7.410156 1.890625 -9.484375 L 10.125 -9.484375 C 10.238281 -8.316406 10.640625 -7.421875 11.328125 -6.796875 C 12.023438 -6.179688 12.929688 -5.875 14.046875 -5.875 C 15.191406 -5.875 16.097656 -6.132812 16.765625 -6.65625 C 17.429688 -7.1875 17.765625 -7.921875 17.765625 -8.859375 C 17.765625 -9.640625 17.5 -10.285156 16.96875 -10.796875 C 16.4375 -11.304688 15.785156 -11.726562 15.015625 -12.0625 C 14.253906 -12.394531 13.164062 -12.769531 11.75 -13.1875 C 9.695312 -13.820312 8.023438 -14.457031 6.734375 -15.09375 C 5.441406 -15.726562 4.328125 -16.660156 3.390625 -17.890625 C 2.453125 -19.128906 1.984375 -20.742188 1.984375 -22.734375 C 1.984375 -25.679688 3.050781 -27.988281 5.1875 -29.65625 C 7.332031 -31.332031 10.125 -32.171875 13.5625 -32.171875 C 17.050781 -32.171875 19.863281 -31.332031 22 -29.65625 C 24.144531 -27.988281 25.289062 -25.664062 25.4375 -22.6875 L 17.078125 -22.6875 C 17.015625 -23.707031 16.632812 -24.507812 15.9375 -25.09375 C 15.25 -25.6875 14.363281 -25.984375 13.28125 -25.984375 C 12.351562 -25.984375 11.601562 -25.734375 11.03125 -25.234375 C 10.457031 -24.734375 10.171875 -24.019531 10.171875 -23.09375 C 10.171875 -22.0625 10.648438 -21.257812 11.609375 -20.6875 C 12.578125 -20.125 14.082031 -19.507812 16.125 -18.84375 C 18.175781 -18.144531 19.84375 -17.476562 21.125 -16.84375 C 22.40625 -16.21875 23.507812 -15.300781 24.4375 -14.09375 C 25.375 -12.894531 25.84375 -11.34375 25.84375 -9.4375 C 25.84375 -7.632812 25.382812 -5.992188 24.46875 -4.515625 C 23.550781 -3.035156 22.21875 -1.859375 20.46875 -0.984375 C 18.71875 -0.117188 16.65625 0.3125 14.28125 0.3125 Z M 14.28125 0.3125 "/></g></g><g style="fill:#ffffff;fill-opacity:1;"><g transform="translate(137.389934, 315.750478)"><path style="stroke:none" d="M 10.53125 -31.71875 L 10.53125 0 L 2.796875 0 L 2.796875 -31.71875 Z M 10.53125 -31.71875 "/></g></g><g style="fill:#ffffff;fill-opacity:1;"><g transform="translate(150.720252, 315.750478)"><path style="stroke:none" d="M 23.453125 -31.71875 L 23.453125 -25.53125 L 10.53125 -25.53125 L 10.53125 -18.84375 L 20.203125 -18.84375 L 20.203125 -12.828125 L 10.53125 -12.828125 L 10.53125 0 L 2.796875 0 L 2.796875 -31.71875 Z M 23.453125 -31.71875 "/></g></g><g style="fill:#ffffff;fill-opacity:1;"><g transform="translate(175.437829, 315.750478)"><path style="stroke:none" d="M 10.53125 -5.96875 L 20.65625 -5.96875 L 20.65625 0 L 2.796875 0 L 2.796875 -31.71875 L 10.53125 -31.71875 Z M 10.53125 -5.96875 "/></g></g><g style="fill:#ffffff;fill-opacity:1;"><g transform="translate(196.992282, 315.750478)"><path style="stroke:none" d="M 17.796875 0.3125 C 14.816406 0.3125 12.082031 -0.378906 9.59375 -1.765625 C 7.113281 -3.148438 5.140625 -5.082031 3.671875 -7.5625 C 2.210938 -10.050781 1.484375 -12.847656 1.484375 -15.953125 C 1.484375 -19.054688 2.210938 -21.84375 3.671875 -24.3125 C 5.140625 -26.78125 7.113281 -28.707031 9.59375 -30.09375 C 12.082031 -31.476562 14.816406 -32.171875 17.796875 -32.171875 C 20.785156 -32.171875 23.519531 -31.476562 26 -30.09375 C 28.488281 -28.707031 30.445312 -26.78125 31.875 -24.3125 C 33.3125 -21.84375 34.03125 -19.054688 34.03125 -15.953125 C 34.03125 -12.847656 33.304688 -10.050781 31.859375 -7.5625 C 30.410156 -5.082031 28.453125 -3.148438 25.984375 -1.765625 C 23.515625 -0.378906 20.785156 0.3125 17.796875 0.3125 Z M 17.796875 -6.734375 C 20.328125 -6.734375 22.351562 -7.578125 23.875 -9.265625 C 25.394531 -10.953125 26.15625 -13.179688 26.15625 -15.953125 C 26.15625 -18.753906 25.394531 -20.988281 23.875 -22.65625 C 22.351562 -24.332031 20.328125 -25.171875 17.796875 -25.171875 C 15.242188 -25.171875 13.207031 -24.34375 11.6875 -22.6875 C 10.164062 -21.03125 9.40625 -18.785156 9.40625 -15.953125 C 9.40625 -13.148438 10.164062 -10.910156 11.6875 -9.234375 C 13.207031 -7.566406 15.242188 -6.734375 17.796875 -6.734375 Z M 17.796875 -6.734375 "/></g></g><g style="fill:#ffffff;fill-opacity:1;"><g transform="translate(232.509683, 315.750478)"><path style="stroke:none" d="M 46.453125 -31.71875 L 38.1875 0 L 28.828125 0 L 23.765625 -20.875 L 18.53125 0 L 9.171875 0 L 1.125 -31.71875 L 9.40625 -31.71875 L 13.96875 -8.625 L 19.609375 -31.71875 L 28.109375 -31.71875 L 33.53125 -8.625 L 38.140625 -31.71875 Z M 46.453125 -31.71875 "/></g></g></g></svg>